<svg xmlns="http://www.w3.org/2000/svg" width="231" height="231" xml:space="preserve"><path fill="#FFF" d="M0 0h231v231H0z"/><defs transform="translate(14 14)"><linearGradient gradientTransform="rotate(90)" id="a"><stop offset="5%" stop-color="#1426B2"/><stop offset="95%" stop-color="#128B16"/></linearGradient><mask id="b"><path d="M100 34.375V0H34.375C24.87 0 16.764 3.353 10.059 10.059S0 24.87 0 34.375V100h100V34.375z" transform="translate(56) scale(.07)" style="fill:#fff"/><path d="M59.375 0H0v100h59.375L100 50 59.375 0z" transform="translate(63) scale(.07)" style="fill:#fff"/><path d="M40.625 0H100v100H40.625L0 50 40.625 0z" transform="translate(84) scale(.07)" style="fill:#fff"/><path d="M100 34.375c0-9.505-3.354-17.611-10.059-24.316S75.131 0 65.625 0H0v100h100V34.375z" transform="translate(91) scale(.07)" style="fill:#fff"/><path d="M100 34.375V0H34.375C24.87 0 16.764 3.353 10.059 10.059S0 24.87 0 34.375V100h100V34.375z" transform="translate(119) scale(.07)" style="fill:#fff"/><path d="M0 0h100v100H0z" transform="translate(126) scale(.07)" style="fill:#fff"/><path d="M0 0h100v100H0z" transform="translate(133) scale(.07)" style="fill:#fff"/><path d="M59.375 0H0v100h59.375L100 50 59.375 0z" transform="translate(140) scale(.07)" style="fill:#fff"/><path d="M100 59.375V0H0v59.375L50 100l50-40.625z" transform="matrix(.07 0 0 .07 56 7)" style="fill:#fff"/><path d="M0 0h100v100H0z" transform="matrix(.07 0 0 .07 91 7)" style="fill:#fff"/><path d="M100 59.375V0H0v59.375L50 100l50-40.625z" transform="matrix(.07 0 0 .07 119 7)" style="fill:#fff"/><path d="M100 40.625V100H0V40.625L50 0l50 40.625z" transform="matrix(.07 0 0 .07 63 14)" style="fill:#fff"/><path d="M100 65.625c0 9.506-3.354 17.611-10.059 24.316S75.131 100 65.625 100h-31.25c-9.505 0-17.611-3.354-24.316-10.059S0 75.131 0 65.625v-31.25c0-9.505 3.353-17.611 10.059-24.316S24.87 0 34.375 0h31.25c9.506 0 17.611 3.353 24.316 10.059S100 24.87 100 34.375v31.25z" transform="matrix(.07 0 0 .07 77 14)" style="fill:#fff"/><path d="M100 0H0v65.625c0 9.506 3.353 17.611 10.059 24.316S24.87 100 34.375 100H100V0z" transform="matrix(.07 0 0 .07 91 14)" style="fill:#fff"/><path d="M0 0h100v100H0z" transform="matrix(.07 0 0 .07 98 14)" style="fill:#fff"/><path d="M0 0h100v100H0z" transform="matrix(.07 0 0 .07 105 14)" style="fill:#fff"/><path d="M59.375 0H0v100h59.375L100 50 59.375 0z" transform="matrix(.07 0 0 .07 112 14)" style="fill:#fff"/><path d="M100 65.625c0 9.506-3.354 17.611-10.059 24.316S75.131 100 65.625 100h-31.25c-9.505 0-17.611-3.354-24.316-10.059S0 75.131 0 65.625v-31.25c0-9.505 3.353-17.611 10.059-24.316S24.87 0 34.375 0h31.25c9.506 0 17.611 3.353 24.316 10.059S100 24.87 100 34.375v31.25z" transform="matrix(.07 0 0 .07 126 14)" style="fill:#fff"/><path d="M100 65.625c0 9.506-3.354 17.611-10.059 24.316S75.131 100 65.625 100h-31.25c-9.505 0-17.611-3.354-24.316-10.059S0 75.131 0 65.625v-31.25c0-9.505 3.353-17.611 10.059-24.316S24.87 0 34.375 0h31.25c9.506 0 17.611 3.353 24.316 10.059S100 24.87 100 34.375v31.25z" transform="matrix(.07 0 0 .07 140 14)" style="fill:#fff"/><path d="M40.625 0H100v100H40.625L0 50 40.625 0z" transform="matrix(.07 0 0 .07 56 21)" style="fill:#fff"/><path d="M0 0h100v100H0z" transform="matrix(.07 0 0 .07 63 21)" style="fill:#fff"/><path d="M59.375 0H0v100h59.375L100 50 59.375 0z" transform="matrix(.07 0 0 .07 70 21)" style="fill:#fff"/><path d="M100 65.625c0 9.506-3.354 17.611-10.059 24.316S75.131 100 65.625 100h-31.25c-9.505 0-17.611-3.354-24.316-10.059S0 75.131 0 65.625v-31.25c0-9.505 3.353-17.611 10.059-24.316S24.87 0 34.375 0h31.25c9.506 0 17.611 3.353 24.316 10.059S100 24.87 100 34.375v31.25z" transform="matrix(.07 0 0 .07 84 21)" style="fill:#fff"/><path d="M0 0h100v100H0z" transform="matrix(.07 0 0 .07 105 21)" style="fill:#fff"/><path d="M100 40.625V100H0V40.625L50 0l50 40.625z" transform="matrix(.07 0 0 .07 119 21)" style="fill:#fff"/><path d="M100 59.375V0H0v59.375L50 100l50-40.625z" transform="matrix(.07 0 0 .07 63 28)" style="fill:#fff"/><path d="M40.625 0H100v100H40.625L0 50 40.625 0z" transform="matrix(.07 0 0 .07 91 28)" style="fill:#fff"/><path d="M0 0h100v100H0z" transform="matrix(.07 0 0 .07 98 28)" style="fill:#fff"/><path d="M0 0h100v100H0z" transform="matrix(.07 0 0 .07 105 28)" style="fill:#fff"/><path d="M0 0h100v100H0z" transform="matrix(.07 0 0 .07 112 28)" style="fill:#fff"/><path d="M0 0h100v100H0z" transform="matrix(.07 0 0 .07 119 28)" style="fill:#fff"/><path d="M0 0h100v100H0z" transform="matrix(.07 0 0 .07 126 28)" style="fill:#fff"/><path d="M100 34.375c0-9.505-3.354-17.611-10.059-24.316S75.131 0 65.625 0H0v100h100V34.375z" transform="matrix(.07 0 0 .07 133 28)" style="fill:#fff"/><path d="M100 40.625V100H0V40.625L50 0l50 40.625z" transform="matrix(.07 0 0 .07 70 35)" style="fill:#fff"/><path d="M100 40.625V100H0V40.625L50 0l50 40.625z" transform="matrix(.07 0 0 .07 84 35)" style="fill:#fff"/><path d="M0 0h100v100H0z" transform="matrix(.07 0 0 .07 98 35)" style="fill:#fff"/><path d="M0 0h100v100H0z" transform="matrix(.07 0 0 .07 126 35)" style="fill:#fff"/><path d="M100 0H0v100h65.625c9.506 0 17.611-3.354 24.316-10.059S100 75.131 100 65.625V0z" transform="matrix(.07 0 0 .07 133 35)" style="fill:#fff"/><path d="M100 40.625V100H0V40.625L50 0l50 40.625z" transform="matrix(.07 0 0 .07 56 42)" style="fill:#fff"/><path d="M0 0h100v100H0z" transform="matrix(.07 0 0 .07 70 42)" style="fill:#fff"/><path d="M100 59.375V0H0v59.375L50 100l50-40.625z" transform="matrix(.07 0 0 .07 84 42)" style="fill:#fff"/><path d="M0 0h100v100H0z" transform="matrix(.07 0 0 .07 98 42)" style="fill:#fff"/><path d="M100 40.625V100H0V40.625L50 0l50 40.625z" transform="matrix(.07 0 0 .07 112 42)" style="fill:#fff"/><path d="M100 59.375V0H0v59.375L50 100l50-40.625z" transform="matrix(.07 0 0 .07 126 42)" style="fill:#fff"/><path d="M100 65.625c0 9.506-3.354 17.611-10.059 24.316S75.131 100 65.625 100h-31.25c-9.505 0-17.611-3.354-24.316-10.059S0 75.131 0 65.625v-31.25c0-9.505 3.353-17.611 10.059-24.316S24.87 0 34.375 0h31.25c9.506 0 17.611 3.353 24.316 10.059S100 24.87 100 34.375v31.25z" transform="matrix(.07 0 0 .07 140 42)" style="fill:#fff"/><path d="M100 0H0v65.625c0 9.506 3.353 17.611 10.059 24.316S24.87 100 34.375 100H100V0z" transform="matrix(.07 0 0 .07 56 49)" style="fill:#fff"/><path d="M0 0h100v100H0z" transform="matrix(.07 0 0 .07 63 49)" style="fill:#fff"/><path d="M0 0h100v100H0z" transform="matrix(.07 0 0 .07 70 49)" style="fill:#fff"/><path d="M100 34.375c0-9.505-3.354-17.611-10.059-24.316S75.131 0 65.625 0H0v100h100V34.375z" transform="matrix(.07 0 0 .07 77 49)" style="fill:#fff"/><path d="M100 34.375V0H34.375C24.87 0 16.764 3.353 10.059 10.059S0 24.87 0 34.375V100h100V34.375z" transform="matrix(.07 0 0 .07 91 49)" style="fill:#fff"/><path d="M0 0h100v100H0z" transform="matrix(.07 0 0 .07 98 49)" style="fill:#fff"/><path d="M0 0h100v100H0z" transform="matrix(.07 0 0 .07 112 49)" style="fill:#fff"/><path d="M100 34.375c0-9.505-3.354-17.611-10.059-24.316S75.131 0 65.625 0H0v100h100V34.375z" transform="matrix(.07 0 0 .07 119 49)" style="fill:#fff"/><path d="M100 65.625c0 9.506-3.354 17.611-10.059 24.316S75.131 100 65.625 100h-31.25c-9.505 0-17.611-3.354-24.316-10.059S0 75.131 0 65.625v-31.25c0-9.505 3.353-17.611 10.059-24.316S24.87 0 34.375 0h31.25c9.506 0 17.611 3.353 24.316 10.059S100 24.87 100 34.375v31.25z" transform="matrix(.07 0 0 .07 133 49)" style="fill:#fff"/><path d="M100 40.625V100H0V40.625L50 0l50 40.625z" transform="matrix(.07 0 0 .07 0 56)" style="fill:#fff"/><path d="M40.625 0H100v100H40.625L0 50 40.625 0z" transform="matrix(.07 0 0 .07 14 56)" style="fill:#fff"/><path d="M59.375 0H0v100h59.375L100 50 59.375 0z" transform="matrix(.07 0 0 .07 21 56)" style="fill:#fff"/><path d="M40.625 0H100v100H40.625L0 50 40.625 0z" transform="matrix(.07 0 0 .07 35 56)" style="fill:#fff"/><path d="M0 0h100v100H0z" transform="matrix(.07 0 0 .07 42 56)" style="fill:#fff"/><path d="M100 34.375c0-9.505-3.354-17.611-10.059-24.316S75.131 0 65.625 0H0v100h100V34.375z" transform="matrix(.07 0 0 .07 49 56)" style="fill:#fff"/><path d="M100 0H0v65.625c0 9.506 3.353 17.611 10.059 24.316S24.87 100 34.375 100H100V0z" transform="matrix(.07 0 0 .07 63 56)" style="fill:#fff"/><path d="M0 0h100v100H0z" transform="matrix(.07 0 0 .07 70 56)" style="fill:#fff"/><path d="M100 0H0v100h65.625c9.506 0 17.611-3.354 24.316-10.059S100 75.131 100 65.625V0z" transform="matrix(.07 0 0 .07 77 56)" style="fill:#fff"/><path d="M100 0H0v65.625c0 9.506 3.353 17.611 10.059 24.316S24.87 100 34.375 100H100V0z" transform="matrix(.07 0 0 .07 91 56)" style="fill:#fff"/><path d="M100 0H0v100h65.625c9.506 0 17.611-3.354 24.316-10.059S100 75.131 100 65.625V0z" transform="matrix(.07 0 0 .07 98 56)" style="fill:#fff"/><path d="M0 0h100v100H0z" transform="matrix(.07 0 0 .07 112 56)" style="fill:#fff"/><path d="M0 0h100v100H0z" transform="matrix(.07 0 0 .07 119 56)" style="fill:#fff"/><path d="M100 34.375c0-9.505-3.354-17.611-10.059-24.316S75.131 0 65.625 0H0v100h100V34.375z" transform="matrix(.07 0 0 .07 126 56)" style="fill:#fff"/><path d="M100 40.625V100H0V40.625L50 0l50 40.625z" transform="matrix(.07 0 0 .07 154 56)" style="fill:#fff"/><path d="M100 65.625c0 9.506-3.354 17.611-10.059 24.316S75.131 100 65.625 100h-31.25c-9.505 0-17.611-3.354-24.316-10.059S0 75.131 0 65.625v-31.25c0-9.505 3.353-17.611 10.059-24.316S24.87 0 34.375 0h31.25c9.506 0 17.611 3.353 24.316 10.059S100 24.87 100 34.375v31.25z" transform="matrix(.07 0 0 .07 175 56)" style="fill:#fff"/><path d="M40.625 0H100v100H40.625L0 50 40.625 0z" transform="matrix(.07 0 0 .07 189 56)" style="fill:#fff"/><path d="M100 34.375c0-9.505-3.354-17.611-10.059-24.316S75.131 0 65.625 0H0v100h100V34.375z" transform="matrix(.07 0 0 .07 196 56)" style="fill:#fff"/><path d="M0 0h100v100H0z" transform="matrix(.07 0 0 .07 0 63)" style="fill:#fff"/><path d="M100 34.375c0-9.505-3.354-17.611-10.059-24.316S75.131 0 65.625 0H0v100h100V34.375z" transform="matrix(.07 0 0 .07 7 63)" style="fill:#fff"/><path d="M100 59.375V0H0v59.375L50 100l50-40.625z" transform="matrix(.07 0 0 .07 49 63)" style="fill:#fff"/><path d="M100 59.375V0H0v59.375L50 100l50-40.625z" transform="matrix(.07 0 0 .07 70 63)" style="fill:#fff"/><path d="M0 0h100v100H0z" transform="matrix(.07 0 0 .07 112 63)" style="fill:#fff"/><path d="M0 0h100v100H0z" transform="matrix(.07 0 0 .07 119 63)" style="fill:#fff"/><path d="M0 0h100v100H0z" transform="matrix(.07 0 0 .07 126 63)" style="fill:#fff"/><path d="M59.375 0H0v100h59.375L100 50 59.375 0z" transform="matrix(.07 0 0 .07 133 63)" style="fill:#fff"/><path d="M100 34.375V0H34.375C24.87 0 16.764 3.353 10.059 10.059S0 24.87 0 34.375V100h100V34.375z" transform="matrix(.07 0 0 .07 147 63)" style="fill:#fff"/><path d="M0 0h100v100H0z" transform="matrix(.07 0 0 .07 154 63)" style="fill:#fff"/><path d="M0 0h100v100H0z" transform="matrix(.07 0 0 .07 161 63)" style="fill:#fff"/><path d="M59.375 0H0v100h59.375L100 50 59.375 0z" transform="matrix(.07 0 0 .07 168 63)" style="fill:#fff"/><path d="M100 59.375V0H0v59.375L50 100l50-40.625z" transform="matrix(.07 0 0 .07 196 63)" style="fill:#fff"/><path d="M100 0H0v65.625c0 9.506 3.353 17.611 10.059 24.316S24.87 100 34.375 100H100V0z" transform="matrix(.07 0 0 .07 0 70)" style="fill:#fff"/><path d="M0 0h100v100H0z" transform="matrix(.07 0 0 .07 7 70)" style="fill:#fff"/><path d="M59.375 0H0v100h59.375L100 50 59.375 0z" transform="matrix(.07 0 0 .07 14 70)" style="fill:#fff"/><path d="M100 40.625V100H0V40.625L50 0l50 40.625z" transform="matrix(.07 0 0 .07 28 70)" style="fill:#fff"/><path d="M100 65.625c0 9.506-3.354 17.611-10.059 24.316S75.131 100 65.625 100h-31.25c-9.505 0-17.611-3.354-24.316-10.059S0 75.131 0 65.625v-31.25c0-9.505 3.353-17.611 10.059-24.316S24.87 0 34.375 0h31.25c9.506 0 17.611 3.353 24.316 10.059S100 24.87 100 34.375v31.25z" transform="matrix(.07 0 0 .07 42 70)" style="fill:#fff"/><path d="M100 65.625c0 9.506-3.354 17.611-10.059 24.316S75.131 100 65.625 100h-31.25c-9.505 0-17.611-3.354-24.316-10.059S0 75.131 0 65.625v-31.25c0-9.505 3.353-17.611 10.059-24.316S24.87 0 34.375 0h31.25c9.506 0 17.611 3.353 24.316 10.059S100 24.87 100 34.375v31.25z" transform="matrix(.07 0 0 .07 63 70)" style="fill:#fff"/><path d="M40.625 0H100v100H40.625L0 50 40.625 0z" transform="matrix(.07 0 0 .07 77 70)" style="fill:#fff"/><path d="M100 34.375c0-9.505-3.354-17.611-10.059-24.316S75.131 0 65.625 0H0v100h100V34.375z" transform="matrix(.07 0 0 .07 84 70)" style="fill:#fff"/><path d="M100 40.625V100H0V40.625L50 0l50 40.625z" transform="matrix(.07 0 0 .07 98 70)" style="fill:#fff"/><path d="M100 0H0v65.625c0 9.506 3.353 17.611 10.059 24.316S24.87 100 34.375 100H100V0z" transform="matrix(.07 0 0 .07 112 70)" style="fill:#fff"/><path d="M100 0H0v100h65.625c9.506 0 17.611-3.354 24.316-10.059S100 75.131 100 65.625V0z" transform="matrix(.07 0 0 .07 119 70)" style="fill:#fff"/><path d="M100 34.375V0H34.375C24.87 0 16.764 3.353 10.059 10.059S0 24.87 0 34.375V100h100V34.375z" transform="matrix(.07 0 0 .07 140 70)" style="fill:#fff"/><path d="M0 0h100v100H0z" transform="matrix(.07 0 0 .07 147 70)" style="fill:#fff"/><path d="M0 0h100v100H0z" transform="matrix(.07 0 0 .07 154 70)" style="fill:#fff"/><path d="M40.625 0H100v100H40.625L0 50 40.625 0z" transform="matrix(.07 0 0 .07 182 70)" style="fill:#fff"/><path d="M59.375 0H0v100h59.375L100 50 59.375 0z" transform="matrix(.07 0 0 .07 189 70)" style="fill:#fff"/><path d="M0 0h100v100H0z" transform="matrix(.07 0 0 .07 7 77)" style="fill:#fff"/><path d="M40.625 0H100v100H40.625L0 50 40.625 0z" transform="matrix(.07 0 0 .07 21 77)" style="fill:#fff"/><path d="M100 0H0v100h65.625c9.506 0 17.611-3.354 24.316-10.059S100 75.131 100 65.625V0z" transform="matrix(.07 0 0 .07 28 77)" style="fill:#fff"/><path d="M100 40.625V100H0V40.625L50 0l50 40.625z" transform="matrix(.07 0 0 .07 49 77)" style="fill:#fff"/><path d="M100 65.625c0 9.506-3.354 17.611-10.059 24.316S75.131 100 65.625 100h-31.25c-9.505 0-17.611-3.354-24.316-10.059S0 75.131 0 65.625v-31.25c0-9.505 3.353-17.611 10.059-24.316S24.87 0 34.375 0h31.25c9.506 0 17.611 3.353 24.316 10.059S100 24.87 100 34.375v31.25z" transform="matrix(.07 0 0 .07 70 77)" style="fill:#fff"/><path d="M100 0H0v65.625c0 9.506 3.353 17.611 10.059 24.316S24.87 100 34.375 100H100V0z" transform="matrix(.07 0 0 .07 84 77)" style="fill:#fff"/><path d="M0 0h100v100H0z" transform="matrix(.07 0 0 .07 91 77)" style="fill:#fff"/><path d="M0 0h100v100H0z" transform="matrix(.07 0 0 .07 98 77)" style="fill:#fff"/><path d="M100 34.375c0-9.505-3.354-17.611-10.059-24.316S75.131 0 65.625 0H0v100h100V34.375z" transform="matrix(.07 0 0 .07 105 77)" style="fill:#fff"/><path d="M0 0h100v100H0z" transform="matrix(.07 0 0 .07 140 77)" style="fill:#fff"/><path d="M0 0h100v100H0z" transform="matrix(.07 0 0 .07 147 77)" style="fill:#fff"/><path d="M100 0H0v100h65.625c9.506 0 17.611-3.354 24.316-10.059S100 75.131 100 65.625V0z" transform="matrix(.07 0 0 .07 154 77)" style="fill:#fff"/><path d="M100 65.625c0 9.506-3.354 17.611-10.059 24.316S75.131 100 65.625 100h-31.25c-9.505 0-17.611-3.354-24.316-10.059S0 75.131 0 65.625v-31.25c0-9.505 3.353-17.611 10.059-24.316S24.87 0 34.375 0h31.25c9.506 0 17.611 3.353 24.316 10.059S100 24.87 100 34.375v31.25z" transform="matrix(.07 0 0 .07 168 77)" style="fill:#fff"/><path d="M100 65.625c0 9.506-3.354 17.611-10.059 24.316S75.131 100 65.625 100h-31.25c-9.505 0-17.611-3.354-24.316-10.059S0 75.131 0 65.625v-31.25c0-9.505 3.353-17.611 10.059-24.316S24.87 0 34.375 0h31.25c9.506 0 17.611 3.353 24.316 10.059S100 24.87 100 34.375v31.25z" transform="matrix(.07 0 0 .07 196 77)" style="fill:#fff"/><path d="M40.625 0H100v100H40.625L0 50 40.625 0z" transform="matrix(.07 0 0 .07 0 84)" style="fill:#fff"/><path d="M0 0h100v100H0z" transform="matrix(.07 0 0 .07 7 84)" style="fill:#fff"/><path d="M40.625 0H100v100H40.625L0 50 40.625 0z" transform="matrix(.07 0 0 .07 42 84)" style="fill:#fff"/><path d="M0 0h100v100H0z" transform="matrix(.07 0 0 .07 49 84)" style="fill:#fff"/><path d="M0 0h100v100H0z" transform="matrix(.07 0 0 .07 56 84)" style="fill:#fff"/><path d="M59.375 0H0v100h59.375L100 50 59.375 0z" transform="matrix(.07 0 0 .07 63 84)" style="fill:#fff"/><path d="M100 0H0v65.625c0 9.506 3.353 17.611 10.059 24.316S24.87 100 34.375 100H100V0z" transform="matrix(.07 0 0 .07 105 84)" style="fill:#fff"/><path d="M0 0h100v100H0z" transform="matrix(.07 0 0 .07 112 84)" style="fill:#fff"/><path d="M100 34.375c0-9.505-3.354-17.611-10.059-24.316S75.131 0 65.625 0H0v100h100V34.375z" transform="matrix(.07 0 0 .07 119 84)" style="fill:#fff"/><path d="M100 59.375V0H0v59.375L50 100l50-40.625z" transform="matrix(.07 0 0 .07 140 84)" style="fill:#fff"/><path d="M40.625 0H100v100H40.625L0 50 40.625 0z" transform="matrix(.07 0 0 .07 175 84)" style="fill:#fff"/><path d="M100 34.375c0-9.505-3.354-17.611-10.059-24.316S75.131 0 65.625 0H0v100h100V34.375z" transform="matrix(.07 0 0 .07 182 84)" style="fill:#fff"/><path d="M100 59.375V0H0v59.375L50 100l50-40.625z" transform="matrix(.07 0 0 .07 7 91)" style="fill:#fff"/><path d="M100 34.375V0H34.375C24.87 0 16.764 3.353 10.059 10.059S0 24.87 0 34.375V100h100V34.375z" transform="matrix(.07 0 0 .07 21 91)" style="fill:#fff"/><path d="M100 34.375c0-9.505-3.354-17.611-10.059-24.316S75.131 0 65.625 0H0v100h100V34.375z" transform="matrix(.07 0 0 .07 28 91)" style="fill:#fff"/><path d="M100 34.375V0H34.375C24.87 0 16.764 3.353 10.059 10.059S0 24.87 0 34.375V100h100V34.375z" transform="matrix(.07 0 0 .07 77 91)" style="fill:#fff"/><path d="M0 0h100v100H0z" transform="matrix(.07 0 0 .07 84 91)" style="fill:#fff"/><path d="M59.375 0H0v100h59.375L100 50 59.375 0z" transform="matrix(.07 0 0 .07 91 91)" style="fill:#fff"/><path d="M100 0H0v65.625c0 9.506 3.353 17.611 10.059 24.316S24.87 100 34.375 100H100V0z" transform="matrix(.07 0 0 .07 112 91)" style="fill:#fff"/><path d="M0 0h100v100H0z" transform="matrix(.07 0 0 .07 119 91)" style="fill:#fff"/><path d="M0 0h100v100H0z" transform="matrix(.07 0 0 .07 126 91)" style="fill:#fff"/><path d="M100 34.375c0-9.505-3.354-17.611-10.059-24.316S75.131 0 65.625 0H0v100h100V34.375z" transform="matrix(.07 0 0 .07 133 91)" style="fill:#fff"/><path d="M40.625 0H100v100H40.625L0 50 40.625 0z" transform="matrix(.07 0 0 .07 147 91)" style="fill:#fff"/><path d="M59.375 0H0v100h59.375L100 50 59.375 0z" transform="matrix(.07 0 0 .07 154 91)" style="fill:#fff"/><path d="M0 0h100v100H0z" transform="matrix(.07 0 0 .07 182 91)" style="fill:#fff"/><path d="M0 0h100v100H0z" transform="matrix(.07 0 0 .07 189 91)" style="fill:#fff"/><path d="M100 34.375c0-9.505-3.354-17.611-10.059-24.316S75.131 0 65.625 0H0v100h100V34.375z" transform="matrix(.07 0 0 .07 196 91)" style="fill:#fff"/><path d="M100 0H0v65.625c0 9.506 3.353 17.611 10.059 24.316S24.87 100 34.375 100H100V0z" transform="matrix(.07 0 0 .07 21 98)" style="fill:#fff"/><path d="M0 0h100v100H0z" transform="matrix(.07 0 0 .07 28 98)" style="fill:#fff"/><path d="M0 0h100v100H0z" transform="matrix(.07 0 0 .07 35 98)" style="fill:#fff"/><path d="M59.375 0H0v100h59.375L100 50 59.375 0z" transform="matrix(.07 0 0 .07 42 98)" style="fill:#fff"/><path d="M100 65.625c0 9.506-3.354 17.611-10.059 24.316S75.131 100 65.625 100h-31.25c-9.505 0-17.611-3.354-24.316-10.059S0 75.131 0 65.625v-31.25c0-9.505 3.353-17.611 10.059-24.316S24.87 0 34.375 0h31.25c9.506 0 17.611 3.353 24.316 10.059S100 24.87 100 34.375v31.25z" transform="matrix(.07 0 0 .07 56 98)" style="fill:#fff"/><path d="M100 59.375V0H0v59.375L50 100l50-40.625z" transform="matrix(.07 0 0 .07 77 98)" style="fill:#fff"/><path d="M100 65.625c0 9.506-3.354 17.611-10.059 24.316S75.131 100 65.625 100h-31.25c-9.505 0-17.611-3.354-24.316-10.059S0 75.131 0 65.625v-31.25c0-9.505 3.353-17.611 10.059-24.316S24.87 0 34.375 0h31.25c9.506 0 17.611 3.353 24.316 10.059S100 24.87 100 34.375v31.25z" transform="matrix(.07 0 0 .07 98 98)" style="fill:#fff"/><path d="M100 0H0v65.625c0 9.506 3.353 17.611 10.059 24.316S24.87 100 34.375 100H100V0z" transform="matrix(.07 0 0 .07 126 98)" style="fill:#fff"/><path d="M0 0h100v100H0z" transform="matrix(.07 0 0 .07 133 98)" style="fill:#fff"/><path d="M100 34.375c0-9.505-3.354-17.611-10.059-24.316S75.131 0 65.625 0H0v100h100V34.375z" transform="matrix(.07 0 0 .07 140 98)" style="fill:#fff"/><path d="M40.625 0H100v100H40.625L0 50 40.625 0z" transform="matrix(.07 0 0 .07 161 98)" style="fill:#fff"/><path d="M100 34.375c0-9.505-3.354-17.611-10.059-24.316S75.131 0 65.625 0H0v100h100V34.375z" transform="matrix(.07 0 0 .07 168 98)" style="fill:#fff"/><path d="M100 0H0v65.625c0 9.506 3.353 17.611 10.059 24.316S24.87 100 34.375 100H100V0z" transform="matrix(.07 0 0 .07 182 98)" style="fill:#fff"/><path d="M0 0h100v100H0z" transform="matrix(.07 0 0 .07 189 98)" style="fill:#fff"/><path d="M100 0H0v100h65.625c9.506 0 17.611-3.354 24.316-10.059S100 75.131 100 65.625V0z" transform="matrix(.07 0 0 .07 196 98)" style="fill:#fff"/><path d="M100 65.625c0 9.506-3.354 17.611-10.059 24.316S75.131 100 65.625 100h-31.25c-9.505 0-17.611-3.354-24.316-10.059S0 75.131 0 65.625v-31.25c0-9.505 3.353-17.611 10.059-24.316S24.87 0 34.375 0h31.25c9.506 0 17.611 3.353 24.316 10.059S100 24.87 100 34.375v31.25z" transform="matrix(.07 0 0 .07 0 105)" style="fill:#fff"/><path d="M100 65.625c0 9.506-3.354 17.611-10.059 24.316S75.131 100 65.625 100h-31.25c-9.505 0-17.611-3.354-24.316-10.059S0 75.131 0 65.625v-31.25c0-9.505 3.353-17.611 10.059-24.316S24.87 0 34.375 0h31.25c9.506 0 17.611 3.353 24.316 10.059S100 24.87 100 34.375v31.25z" transform="matrix(.07 0 0 .07 14 105)" style="fill:#fff"/><path d="M100 65.625c0 9.506-3.354 17.611-10.059 24.316S75.131 100 65.625 100h-31.25c-9.505 0-17.611-3.354-24.316-10.059S0 75.131 0 65.625v-31.25c0-9.505 3.353-17.611 10.059-24.316S24.87 0 34.375 0h31.25c9.506 0 17.611 3.353 24.316 10.059S100 24.87 100 34.375v31.25z" transform="matrix(.07 0 0 .07 49 105)" style="fill:#fff"/><path d="M100 40.625V100H0V40.625L50 0l50 40.625z" transform="matrix(.07 0 0 .07 63 105)" style="fill:#fff"/><path d="M100 65.625c0 9.506-3.354 17.611-10.059 24.316S75.131 100 65.625 100h-31.25c-9.505 0-17.611-3.354-24.316-10.059S0 75.131 0 65.625v-31.25c0-9.505 3.353-17.611 10.059-24.316S24.87 0 34.375 0h31.25c9.506 0 17.611 3.353 24.316 10.059S100 24.87 100 34.375v31.25z" transform="matrix(.07 0 0 .07 91 105)" style="fill:#fff"/><path d="M100 40.625V100H0V40.625L50 0l50 40.625z" transform="matrix(.07 0 0 .07 105 105)" style="fill:#fff"/><path d="M0 0h100v100H0z" transform="matrix(.07 0 0 .07 133 105)" style="fill:#fff"/><path d="M0 0h100v100H0z" transform="matrix(.07 0 0 .07 140 105)" style="fill:#fff"/><path d="M100 34.375c0-9.505-3.354-17.611-10.059-24.316S75.131 0 65.625 0H0v100h100V34.375z" transform="matrix(.07 0 0 .07 147 105)" style="fill:#fff"/><path d="M0 0h100v100H0z" transform="matrix(.07 0 0 .07 168 105)" style="fill:#fff"/><path d="M0 0h100v100H0z" transform="matrix(.07 0 0 .07 189 105)" style="fill:#fff"/><path d="M100 65.625c0 9.506-3.354 17.611-10.059 24.316S75.131 100 65.625 100h-31.25c-9.505 0-17.611-3.354-24.316-10.059S0 75.131 0 65.625v-31.25c0-9.505 3.353-17.611 10.059-24.316S24.87 0 34.375 0h31.25c9.506 0 17.611 3.353 24.316 10.059S100 24.87 100 34.375v31.25z" transform="matrix(.07 0 0 .07 21 112)" style="fill:#fff"/><path d="M100 65.625c0 9.506-3.354 17.611-10.059 24.316S75.131 100 65.625 100h-31.25c-9.505 0-17.611-3.354-24.316-10.059S0 75.131 0 65.625v-31.25c0-9.505 3.353-17.611 10.059-24.316S24.87 0 34.375 0h31.25c9.506 0 17.611 3.353 24.316 10.059S100 24.87 100 34.375v31.25z" transform="matrix(.07 0 0 .07 42 112)" style="fill:#fff"/><path d="M100 0H0v65.625c0 9.506 3.353 17.611 10.059 24.316S24.87 100 34.375 100H100V0z" transform="matrix(.07 0 0 .07 63 112)" style="fill:#fff"/><path d="M100 34.375c0-9.505-3.354-17.611-10.059-24.316S75.131 0 65.625 0H0v100h100V34.375z" transform="matrix(.07 0 0 .07 70 112)" style="fill:#fff"/><path d="M0 0h100v100H0z" transform="matrix(.07 0 0 .07 105 112)" style="fill:#fff"/><path d="M59.375 0H0v100h59.375L100 50 59.375 0z" transform="matrix(.07 0 0 .07 112 112)" style="fill:#fff"/><path d="M40.625 0H100v100H40.625L0 50 40.625 0z" transform="matrix(.07 0 0 .07 126 112)" style="fill:#fff"/><path d="M0 0h100v100H0z" transform="matrix(.07 0 0 .07 133 112)" style="fill:#fff"/><path d="M0 0h100v100H0z" transform="matrix(.07 0 0 .07 140 112)" style="fill:#fff"/><path d="M100 0H0v100h65.625c9.506 0 17.611-3.354 24.316-10.059S100 75.131 100 65.625V0z" transform="matrix(.07 0 0 .07 147 112)" style="fill:#fff"/><path d="M100 0H0v65.625c0 9.506 3.353 17.611 10.059 24.316S24.87 100 34.375 100H100V0z" transform="matrix(.07 0 0 .07 168 112)" style="fill:#fff"/><path d="M100 34.375c0-9.505-3.354-17.611-10.059-24.316S75.131 0 65.625 0H0v100h100V34.375z" transform="matrix(.07 0 0 .07 175 112)" style="fill:#fff"/><path d="M0 0h100v100H0z" transform="matrix(.07 0 0 .07 189 112)" style="fill:#fff"/><path d="M100 40.625V100H0V40.625L50 0l50 40.625z" transform="matrix(.07 0 0 .07 14 119)" style="fill:#fff"/><path d="M100 40.625V100H0V40.625L50 0l50 40.625z" transform="matrix(.07 0 0 .07 28 119)" style="fill:#fff"/><path d="M100 65.625c0 9.506-3.354 17.611-10.059 24.316S75.131 100 65.625 100h-31.25c-9.505 0-17.611-3.354-24.316-10.059S0 75.131 0 65.625v-31.25c0-9.505 3.353-17.611 10.059-24.316S24.87 0 34.375 0h31.25c9.506 0 17.611 3.353 24.316 10.059S100 24.87 100 34.375v31.25z" transform="matrix(.07 0 0 .07 49 119)" style="fill:#fff"/><path d="M0 0h100v100H0z" transform="matrix(.07 0 0 .07 70 119)" style="fill:#fff"/><path d="M100 65.625c0 9.506-3.354 17.611-10.059 24.316S75.131 100 65.625 100h-31.25c-9.505 0-17.611-3.354-24.316-10.059S0 75.131 0 65.625v-31.25c0-9.505 3.353-17.611 10.059-24.316S24.87 0 34.375 0h31.25c9.506 0 17.611 3.353 24.316 10.059S100 24.87 100 34.375v31.25z" transform="matrix(.07 0 0 .07 91 119)" style="fill:#fff"/><path d="M0 0h100v100H0z" transform="matrix(.07 0 0 .07 105 119)" style="fill:#fff"/><path d="M0 0h100v100H0z" transform="matrix(.07 0 0 .07 140 119)" style="fill:#fff"/><path d="M100 40.625V100H0V40.625L50 0l50 40.625z" transform="matrix(.07 0 0 .07 161 119)" style="fill:#fff"/><path d="M100 0H0v65.625c0 9.506 3.353 17.611 10.059 24.316S24.87 100 34.375 100H100V0z" transform="matrix(.07 0 0 .07 175 119)" style="fill:#fff"/><path d="M0 0h100v100H0z" transform="matrix(.07 0 0 .07 182 119)" style="fill:#fff"/><path d="M100 0H0v100h65.625c9.506 0 17.611-3.354 24.316-10.059S100 75.131 100 65.625V0z" transform="matrix(.07 0 0 .07 189 119)" style="fill:#fff"/><path d="M100 65.625c0 9.506-3.354 17.611-10.059 24.316S75.131 100 65.625 100h-31.25c-9.505 0-17.611-3.354-24.316-10.059S0 75.131 0 65.625v-31.25c0-9.505 3.353-17.611 10.059-24.316S24.87 0 34.375 0h31.25c9.506 0 17.611 3.353 24.316 10.059S100 24.87 100 34.375v31.25z" transform="matrix(.07 0 0 .07 0 126)" style="fill:#fff"/><path d="M0 0h100v100H0z" transform="matrix(.07 0 0 .07 14 126)" style="fill:#fff"/><path d="M0 0h100v100H0z" transform="matrix(.07 0 0 .07 28 126)" style="fill:#fff"/><path d="M0 0h100v100H0z" transform="matrix(.07 0 0 .07 35 126)" style="fill:#fff"/><path d="M59.375 0H0v100h59.375L100 50 59.375 0z" transform="matrix(.07 0 0 .07 42 126)" style="fill:#fff"/><path d="M100 65.625c0 9.506-3.354 17.611-10.059 24.316S75.131 100 65.625 100h-31.25c-9.505 0-17.611-3.354-24.316-10.059S0 75.131 0 65.625v-31.25c0-9.505 3.353-17.611 10.059-24.316S24.87 0 34.375 0h31.25c9.506 0 17.611 3.353 24.316 10.059S100 24.87 100 34.375v31.25z" transform="matrix(.07 0 0 .07 56 126)" style="fill:#fff"/><path d="M0 0h100v100H0z" transform="matrix(.07 0 0 .07 70 126)" style="fill:#fff"/><path d="M100 40.625V100H0V40.625L50 0l50 40.625z" transform="matrix(.07 0 0 .07 84 126)" style="fill:#fff"/><path d="M100 0H0v65.625c0 9.506 3.353 17.611 10.059 24.316S24.87 100 34.375 100H100V0z" transform="matrix(.07 0 0 .07 105 126)" style="fill:#fff"/><path d="M0 0h100v100H0z" transform="matrix(.07 0 0 .07 112 126)" style="fill:#fff"/><path d="M0 0h100v100H0z" transform="matrix(.07 0 0 .07 119 126)" style="fill:#fff"/><path d="M59.375 0H0v100h59.375L100 50 59.375 0z" transform="matrix(.07 0 0 .07 126 126)" style="fill:#fff"/><path d="M0 0h100v100H0z" transform="matrix(.07 0 0 .07 140 126)" style="fill:#fff"/><path d="M100 34.375V0H34.375C24.87 0 16.764 3.353 10.059 10.059S0 24.87 0 34.375V100h100V34.375z" transform="matrix(.07 0 0 .07 154 126)" style="fill:#fff"/><path d="M0 0h100v100H0z" transform="matrix(.07 0 0 .07 161 126)" style="fill:#fff"/><path d="M59.375 0H0v100h59.375L100 50 59.375 0z" transform="matrix(.07 0 0 .07 168 126)" style="fill:#fff"/><path d="M0 0h100v100H0z" transform="matrix(.07 0 0 .07 182 126)" style="fill:#fff"/><path d="M100 0H0v65.625c0 9.506 3.353 17.611 10.059 24.316S24.87 100 34.375 100H100V0z" transform="matrix(.07 0 0 .07 14 133)" style="fill:#fff"/><path d="M0 0h100v100H0z" transform="matrix(.07 0 0 .07 21 133)" style="fill:#fff"/><path d="M100 0H0v100h65.625c9.506 0 17.611-3.354 24.316-10.059S100 75.131 100 65.625V0z" transform="matrix(.07 0 0 .07 28 133)" style="fill:#fff"/><path d="M100 40.625V100H0V40.625L50 0l50 40.625z" transform="matrix(.07 0 0 .07 49 133)" style="fill:#fff"/><path d="M0 0h100v100H0z" transform="matrix(.07 0 0 .07 70 133)" style="fill:#fff"/><path d="M0 0h100v100H0z" transform="matrix(.07 0 0 .07 84 133)" style="fill:#fff"/><path d="M0 0h100v100H0z" transform="matrix(.07 0 0 .07 112 133)" style="fill:#fff"/><path d="M0 0h100v100H0z" transform="matrix(.07 0 0 .07 119 133)" style="fill:#fff"/><path d="M40.625 0H100v100H40.625L0 50 40.625 0z" transform="matrix(.07 0 0 .07 133 133)" style="fill:#fff"/><path d="M0 0h100v100H0z" transform="matrix(.07 0 0 .07 140 133)" style="fill:#fff"/><path d="M0 0h100v100H0z" transform="matrix(.07 0 0 .07 147 133)" style="fill:#fff"/><path d="M0 0h100v100H0z" transform="matrix(.07 0 0 .07 154 133)" style="fill:#fff"/><path d="M0 0h100v100H0z" transform="matrix(.07 0 0 .07 161 133)" style="fill:#fff"/><path d="M0 0h100v100H0z" transform="matrix(.07 0 0 .07 182 133)" style="fill:#fff"/><path d="M100 65.625c0 9.506-3.354 17.611-10.059 24.316S75.131 100 65.625 100h-31.25c-9.505 0-17.611-3.354-24.316-10.059S0 75.131 0 65.625v-31.25c0-9.505 3.353-17.611 10.059-24.316S24.87 0 34.375 0h31.25c9.506 0 17.611 3.353 24.316 10.059S100 24.87 100 34.375v31.25z" transform="matrix(.07 0 0 .07 7 140)" style="fill:#fff"/><path d="M40.625 0H100v100H40.625L0 50 40.625 0z" transform="matrix(.07 0 0 .07 35 140)" style="fill:#fff"/><path d="M0 0h100v100H0z" transform="matrix(.07 0 0 .07 42 140)" style="fill:#fff"/><path d="M0 0h100v100H0z" transform="matrix(.07 0 0 .07 49 140)" style="fill:#fff"/><path d="M0 0h100v100H0z" transform="matrix(.07 0 0 .07 56 140)" style="fill:#fff"/><path d="M0 0h100v100H0z" transform="matrix(.07 0 0 .07 63 140)" style="fill:#fff"/><path d="M0 0h100v100H0z" transform="matrix(.07 0 0 .07 70 140)" style="fill:#fff"/><path d="M0 0h100v100H0z" transform="matrix(.07 0 0 .07 77 140)" style="fill:#fff"/><path d="M0 0h100v100H0z" transform="matrix(.07 0 0 .07 84 140)" style="fill:#fff"/><path d="M100 34.375c0-9.505-3.354-17.611-10.059-24.316S75.131 0 65.625 0H0v100h100V34.375z" transform="matrix(.07 0 0 .07 91 140)" style="fill:#fff"/><path d="M100 34.375V0H34.375C24.87 0 16.764 3.353 10.059 10.059S0 24.87 0 34.375V100h100V34.375z" transform="matrix(.07 0 0 .07 105 140)" style="fill:#fff"/><path d="M0 0h100v100H0z" transform="matrix(.07 0 0 .07 112 140)" style="fill:#fff"/><path d="M0 0h100v100H0z" transform="matrix(.07 0 0 .07 119 140)" style="fill:#fff"/><path d="M0 0h100v100H0z" transform="matrix(.07 0 0 .07 140 140)" style="fill:#fff"/><path d="M0 0h100v100H0z" transform="matrix(.07 0 0 .07 147 140)" style="fill:#fff"/><path d="M0 0h100v100H0z" transform="matrix(.07 0 0 .07 154 140)" style="fill:#fff"/><path d="M0 0h100v100H0z" transform="matrix(.07 0 0 .07 161 140)" style="fill:#fff"/><path d="M0 0h100v100H0z" transform="matrix(.07 0 0 .07 168 140)" style="fill:#fff"/><path d="M0 0h100v100H0z" transform="matrix(.07 0 0 .07 175 140)" style="fill:#fff"/><path d="M0 0h100v100H0z" transform="matrix(.07 0 0 .07 182 140)" style="fill:#fff"/><path d="M0 0h100v100H0z" transform="matrix(.07 0 0 .07 56 147)" style="fill:#fff"/><path d="M0 0h100v100H0z" transform="matrix(.07 0 0 .07 63 147)" style="fill:#fff"/><path d="M0 0h100v100H0z" transform="matrix(.07 0 0 .07 70 147)" style="fill:#fff"/><path d="M0 0h100v100H0z" transform="matrix(.07 0 0 .07 77 147)" style="fill:#fff"/><path d="M0 0h100v100H0z" transform="matrix(.07 0 0 .07 91 147)" style="fill:#fff"/><path d="M0 0h100v100H0z" transform="matrix(.07 0 0 .07 98 147)" style="fill:#fff"/><path d="M0 0h100v100H0z" transform="matrix(.07 0 0 .07 105 147)" style="fill:#fff"/><path d="M0 0h100v100H0z" transform="matrix(.07 0 0 .07 112 147)" style="fill:#fff"/><path d="M0 0h100v100H0z" transform="matrix(.07 0 0 .07 119 147)" style="fill:#fff"/><path d="M100 34.375c0-9.505-3.354-17.611-10.059-24.316S75.131 0 65.625 0H0v100h100V34.375z" transform="matrix(.07 0 0 .07 126 147)" style="fill:#fff"/><path d="M0 0h100v100H0z" transform="matrix(.07 0 0 .07 140 147)" style="fill:#fff"/><path d="M0 0h100v100H0z" transform="matrix(.07 0 0 .07 168 147)" style="fill:#fff"/><path d="M0 0h100v100H0z" transform="matrix(.07 0 0 .07 175 147)" style="fill:#fff"/><path d="M0 0h100v100H0z" transform="matrix(.07 0 0 .07 182 147)" style="fill:#fff"/><path d="M0 0h100v100H0z" transform="matrix(.07 0 0 .07 189 147)" style="fill:#fff"/><path d="M59.375 0H0v100h59.375L100 50 59.375 0z" transform="matrix(.07 0 0 .07 196 147)" style="fill:#fff"/><path d="M0 0h100v100H0z" transform="matrix(.07 0 0 .07 56 154)" style="fill:#fff"/><path d="M0 0h100v100H0z" transform="matrix(.07 0 0 .07 63 154)" style="fill:#fff"/><path d="M0 0h100v100H0z" transform="matrix(.07 0 0 .07 70 154)" style="fill:#fff"/><path d="M0 0h100v100H0z" transform="matrix(.07 0 0 .07 77 154)" style="fill:#fff"/><path d="M100 59.375V0H0v59.375L50 100l50-40.625z" transform="matrix(.07 0 0 .07 91 154)" style="fill:#fff"/><path d="M100 59.375V0H0v59.375L50 100l50-40.625z" transform="matrix(.07 0 0 .07 112 154)" style="fill:#fff"/><path d="M100 0H0v65.625c0 9.506 3.353 17.611 10.059 24.316S24.87 100 34.375 100H100V0z" transform="matrix(.07 0 0 .07 126 154)" style="fill:#fff"/><path d="M0 0h100v100H0z" transform="matrix(.07 0 0 .07 133 154)" style="fill:#fff"/><path d="M0 0h100v100H0z" transform="matrix(.07 0 0 .07 140 154)" style="fill:#fff"/><path d="M100 65.625c0 9.506-3.354 17.611-10.059 24.316S75.131 100 65.625 100h-31.25c-9.505 0-17.611-3.354-24.316-10.059S0 75.131 0 65.625v-31.25c0-9.505 3.353-17.611 10.059-24.316S24.87 0 34.375 0h31.25c9.506 0 17.611 3.353 24.316 10.059S100 24.87 100 34.375v31.25z" transform="matrix(.07 0 0 .07 154 154)" style="fill:#fff"/><path d="M0 0h100v100H0z" transform="matrix(.07 0 0 .07 168 154)" style="fill:#fff"/><path d="M0 0h100v100H0z" transform="matrix(.07 0 0 .07 175 154)" style="fill:#fff"/><path d="M0 0h100v100H0z" transform="matrix(.07 0 0 .07 189 154)" style="fill:#fff"/><path d="M100 0H0v65.625c0 9.506 3.353 17.611 10.059 24.316S24.87 100 34.375 100H100V0z" transform="matrix(.07 0 0 .07 56 161)" style="fill:#fff"/><path d="M100 0H0v100h65.625c9.506 0 17.611-3.354 24.316-10.059S100 75.131 100 65.625V0z" transform="matrix(.07 0 0 .07 63 161)" style="fill:#fff"/><path d="M0 0h100v100H0z" transform="matrix(.07 0 0 .07 77 161)" style="fill:#fff"/><path d="M100 65.625c0 9.506-3.354 17.611-10.059 24.316S75.131 100 65.625 100h-31.25c-9.505 0-17.611-3.354-24.316-10.059S0 75.131 0 65.625v-31.25c0-9.505 3.353-17.611 10.059-24.316S24.87 0 34.375 0h31.25c9.506 0 17.611 3.353 24.316 10.059S100 24.87 100 34.375v31.25z" transform="matrix(.07 0 0 .07 105 161)" style="fill:#fff"/><path d="M0 0h100v100H0z" transform="matrix(.07 0 0 .07 140 161)" style="fill:#fff"/><path d="M0 0h100v100H0z" transform="matrix(.07 0 0 .07 168 161)" style="fill:#fff"/><path d="M100 0H0v100h65.625c9.506 0 17.611-3.354 24.316-10.059S100 75.131 100 65.625V0z" transform="matrix(.07 0 0 .07 175 161)" style="fill:#fff"/><path d="M100 0H0v65.625c0 9.506 3.353 17.611 10.059 24.316S24.87 100 34.375 100H100V0z" transform="matrix(.07 0 0 .07 189 161)" style="fill:#fff"/><path d="M59.375 0H0v100h59.375L100 50 59.375 0z" transform="matrix(.07 0 0 .07 196 161)" style="fill:#fff"/><path d="M40.625 0H100v100H40.625L0 50 40.625 0z" transform="matrix(.07 0 0 .07 70 168)" style="fill:#fff"/><path d="M100 0H0v100h65.625c9.506 0 17.611-3.354 24.316-10.059S100 75.131 100 65.625V0z" transform="matrix(.07 0 0 .07 77 168)" style="fill:#fff"/><path d="M100 40.625V100H0V40.625L50 0l50 40.625z" transform="matrix(.07 0 0 .07 98 168)" style="fill:#fff"/><path d="M100 65.625c0 9.506-3.354 17.611-10.059 24.316S75.131 100 65.625 100h-31.25c-9.505 0-17.611-3.354-24.316-10.059S0 75.131 0 65.625v-31.25c0-9.505 3.353-17.611 10.059-24.316S24.87 0 34.375 0h31.25c9.506 0 17.611 3.353 24.316 10.059S100 24.87 100 34.375v31.25z" transform="matrix(.07 0 0 .07 119 168)" style="fill:#fff"/><path d="M0 0h100v100H0z" transform="matrix(.07 0 0 .07 140 168)" style="fill:#fff"/><path d="M0 0h100v100H0z" transform="matrix(.07 0 0 .07 147 168)" style="fill:#fff"/><path d="M0 0h100v100H0z" transform="matrix(.07 0 0 .07 154 168)" style="fill:#fff"/><path d="M0 0h100v100H0z" transform="matrix(.07 0 0 .07 161 168)" style="fill:#fff"/><path d="M0 0h100v100H0z" transform="matrix(.07 0 0 .07 168 168)" style="fill:#fff"/><path d="M100 65.625c0 9.506-3.354 17.611-10.059 24.316S75.131 100 65.625 100h-31.25c-9.505 0-17.611-3.354-24.316-10.059S0 75.131 0 65.625v-31.25c0-9.505 3.353-17.611 10.059-24.316S24.87 0 34.375 0h31.25c9.506 0 17.611 3.353 24.316 10.059S100 24.87 100 34.375v31.25z" transform="matrix(.07 0 0 .07 182 168)" style="fill:#fff"/><path d="M100 34.375V0H34.375C24.87 0 16.764 3.353 10.059 10.059S0 24.87 0 34.375V100h100V34.375z" transform="matrix(.07 0 0 .07 56 175)" style="fill:#fff"/><path d="M59.375 0H0v100h59.375L100 50 59.375 0z" transform="matrix(.07 0 0 .07 63 175)" style="fill:#fff"/><path d="M100 34.375V0H34.375C24.87 0 16.764 3.353 10.059 10.059S0 24.87 0 34.375V100h100V34.375z" transform="matrix(.07 0 0 .07 84 175)" style="fill:#fff"/><path d="M0 0h100v100H0z" transform="matrix(.07 0 0 .07 91 175)" style="fill:#fff"/><path d="M0 0h100v100H0z" transform="matrix(.07 0 0 .07 98 175)" style="fill:#fff"/><path d="M59.375 0H0v100h59.375L100 50 59.375 0z" transform="matrix(.07 0 0 .07 105 175)" style="fill:#fff"/><path d="M100 34.375V0H34.375C24.87 0 16.764 3.353 10.059 10.059S0 24.87 0 34.375V100h100V34.375z" transform="matrix(.07 0 0 .07 133 175)" style="fill:#fff"/><path d="M0 0h100v100H0z" transform="matrix(.07 0 0 .07 140 175)" style="fill:#fff"/><path d="M100 0H0v100h65.625c9.506 0 17.611-3.354 24.316-10.059S100 75.131 100 65.625V0z" transform="matrix(.07 0 0 .07 147 175)" style="fill:#fff"/><path d="M0 0h100v100H0z" transform="matrix(.07 0 0 .07 161 175)" style="fill:#fff"/><path d="M0 0h100v100H0z" transform="matrix(.07 0 0 .07 168 175)" style="fill:#fff"/><path d="M59.375 0H0v100h59.375L100 50 59.375 0z" transform="matrix(.07 0 0 .07 175 175)" style="fill:#fff"/><path d="M100 40.625V100H0V40.625L50 0l50 40.625z" transform="matrix(.07 0 0 .07 196 175)" style="fill:#fff"/><path d="M100 59.375V0H0v59.375L50 100l50-40.625z" transform="matrix(.07 0 0 .07 56 182)" style="fill:#fff"/><path d="M100 40.625V100H0V40.625L50 0l50 40.625z" transform="matrix(.07 0 0 .07 70 182)" style="fill:#fff"/><path d="M100 0H0v65.625c0 9.506 3.353 17.611 10.059 24.316S24.87 100 34.375 100H100V0z" transform="matrix(.07 0 0 .07 84 182)" style="fill:#fff"/><path d="M0 0h100v100H0z" transform="matrix(.07 0 0 .07 91 182)" style="fill:#fff"/><path d="M100 0H0v65.625c0 9.506 3.353 17.611 10.059 24.316S24.87 100 34.375 100H100V0z" transform="matrix(.07 0 0 .07 133 182)" style="fill:#fff"/><path d="M0 0h100v100H0z" transform="matrix(.07 0 0 .07 140 182)" style="fill:#fff"/><path d="M100 59.375V0H0v59.375L50 100l50-40.625z" transform="matrix(.07 0 0 .07 161 182)" style="fill:#fff"/><path d="M100 65.625c0 9.506-3.354 17.611-10.059 24.316S75.131 100 65.625 100h-31.25c-9.505 0-17.611-3.354-24.316-10.059S0 75.131 0 65.625v-31.25c0-9.505 3.353-17.611 10.059-24.316S24.87 0 34.375 0h31.25c9.506 0 17.611 3.353 24.316 10.059S100 24.87 100 34.375v31.25z" transform="matrix(.07 0 0 .07 182 182)" style="fill:#fff"/><path d="M100 59.375V0H0v59.375L50 100l50-40.625z" transform="matrix(.07 0 0 .07 196 182)" style="fill:#fff"/><path d="M100 34.375V0H34.375C24.87 0 16.764 3.353 10.059 10.059S0 24.87 0 34.375V100h100V34.375z" transform="matrix(.07 0 0 .07 63 189)" style="fill:#fff"/><path d="M0 0h100v100H0z" transform="matrix(.07 0 0 .07 70 189)" style="fill:#fff"/><path d="M100 0H0v65.625c0 9.506 3.353 17.611 10.059 24.316S24.87 100 34.375 100H100V0z" transform="matrix(.07 0 0 .07 91 189)" style="fill:#fff"/><path d="M59.375 0H0v100h59.375L100 50 59.375 0z" transform="matrix(.07 0 0 .07 98 189)" style="fill:#fff"/><path d="M100 65.625c0 9.506-3.354 17.611-10.059 24.316S75.131 100 65.625 100h-31.25c-9.505 0-17.611-3.354-24.316-10.059S0 75.131 0 65.625v-31.25c0-9.505 3.353-17.611 10.059-24.316S24.87 0 34.375 0h31.25c9.506 0 17.611 3.353 24.316 10.059S100 24.87 100 34.375v31.25z" transform="matrix(.07 0 0 .07 112 189)" style="fill:#fff"/><path d="M0 0h100v100H0z" transform="matrix(.07 0 0 .07 140 189)" style="fill:#fff"/><path d="M100 65.625c0 9.506-3.354 17.611-10.059 24.316S75.131 100 65.625 100h-31.25c-9.505 0-17.611-3.354-24.316-10.059S0 75.131 0 65.625v-31.25c0-9.505 3.353-17.611 10.059-24.316S24.87 0 34.375 0h31.25c9.506 0 17.611 3.353 24.316 10.059S100 24.87 100 34.375v31.25z" transform="matrix(.07 0 0 .07 154 189)" style="fill:#fff"/><path d="M100 65.625c0 9.506-3.354 17.611-10.059 24.316S75.131 100 65.625 100h-31.25c-9.505 0-17.611-3.354-24.316-10.059S0 75.131 0 65.625v-31.25c0-9.505 3.353-17.611 10.059-24.316S24.87 0 34.375 0h31.25c9.506 0 17.611 3.353 24.316 10.059S100 24.87 100 34.375v31.25z" transform="matrix(.07 0 0 .07 175 189)" style="fill:#fff"/><path d="M100 40.625V100H0V40.625L50 0l50 40.625z" transform="matrix(.07 0 0 .07 189 189)" style="fill:#fff"/><path d="M40.625 0H100v100H40.625L0 50 40.625 0z" transform="matrix(.07 0 0 .07 56 196)" style="fill:#fff"/><path d="M0 0h100v100H0z" transform="matrix(.07 0 0 .07 63 196)" style="fill:#fff"/><path d="M100 0H0v100h65.625c9.506 0 17.611-3.354 24.316-10.059S100 75.131 100 65.625V0z" transform="matrix(.07 0 0 .07 70 196)" style="fill:#fff"/><path d="M100 65.625c0 9.506-3.354 17.611-10.059 24.316S75.131 100 65.625 100h-31.25c-9.505 0-17.611-3.354-24.316-10.059S0 75.131 0 65.625v-31.25c0-9.505 3.353-17.611 10.059-24.316S24.87 0 34.375 0h31.25c9.506 0 17.611 3.353 24.316 10.059S100 24.87 100 34.375v31.25z" transform="matrix(.07 0 0 .07 105 196)" style="fill:#fff"/><path d="M40.625 0H100v100H40.625L0 50 40.625 0z" transform="matrix(.07 0 0 .07 126 196)" style="fill:#fff"/><path d="M0 0h100v100H0z" transform="matrix(.07 0 0 .07 133 196)" style="fill:#fff"/><path d="M100 0H0v100h65.625c9.506 0 17.611-3.354 24.316-10.059S100 75.131 100 65.625V0z" transform="matrix(.07 0 0 .07 140 196)" style="fill:#fff"/><path d="M100 65.625c0 9.506-3.354 17.611-10.059 24.316S75.131 100 65.625 100h-31.25c-9.505 0-17.611-3.354-24.316-10.059S0 75.131 0 65.625v-31.25c0-9.505 3.353-17.611 10.059-24.316S24.87 0 34.375 0h31.25c9.506 0 17.611 3.353 24.316 10.059S100 24.87 100 34.375v31.25z" transform="matrix(.07 0 0 .07 168 196)" style="fill:#fff"/><path d="M100 59.375V0H0v59.375L50 100l50-40.625z" transform="matrix(.07 0 0 .07 189 196)" style="fill:#fff"/></mask></defs><path fill="url(#a)" mask="url(#b)" d="M0 0h203v203H0z" transform="translate(14 14)"/><g style="fill:#3c0b92"><path d="M14.91 14 14 20.09l6.09.91.91-6.09zM21 15.19 26.81 14 28 19.81 22.19 21zM28 14.7l6.3-.7.7 6.3-7 .7zM35 15.05 40.95 14 42 19.95 36.05 21zM42 14.84l6.16-.84.84 6.16-6.16.84zM50.54 14 49 19.46 54.46 21 56 15.54zM57.05 14.35l-.7 5.6 5.6.7.7-5.6zM14 22.05 19.95 21 21 26.95 15.05 28zM56 21.84l6.16-.84.84 6.16-6.16.84zM15.54 28 14 33.46 19.46 35 21 29.54zM57.05 28.35l-.7 5.6 5.6.7.7-5.6zM14 35.7l6.3-.7.7 6.3-7 .7zM56 36.05 61.95 35 63 40.95 57.05 42zM14 42.84l6.16-.84.84 6.16-6.16.84zM57.54 42 56 47.46 61.46 49 63 43.54zM14 50.05 19.95 49 21 54.95 15.05 56zM56 49.84l6.16-.84.84 6.16-6.16.84zM14.91 56 14 62.09l6.09.91.91-6.09zM21 57.19 26.81 56 28 61.81 22.19 63zM28 56.7l6.3-.7.7 6.3-7 .7zM35 57.05 40.95 56 42 61.95 36.05 63zM42 56.84l6.16-.84.84 6.16-6.16.84zM50.54 56 49 61.46 54.46 63 56 57.54zM57.05 56.35l-.7 5.6 5.6.7.7-5.6z"/></g><g style="fill:#3c0b92"><path d="m216.09 14 .91 6.09-6.09.91-.91-6.09zM210 15.19 204.19 14 203 19.81l5.81 1.19zM203 14.7l-6.3-.7-.7 6.3 7 .7zM196 15.05 190.05 14 189 19.95l5.95 1.05zM189 14.84l-6.16-.84-.84 6.16 6.16.84zM180.46 14l1.54 5.46-5.46 1.54-1.54-5.46zM173.95 14.35l.7 5.6-5.6.7-.7-5.6zM217 22.05 211.05 21 210 26.95l5.95 1.05zM175 21.84l-6.16-.84-.84 6.16 6.16.84zM215.46 28l1.54 5.46-5.46 1.54-1.54-5.46zM173.95 28.35l.7 5.6-5.6.7-.7-5.6zM217 35.7l-6.3-.7-.7 6.3 7 .7zM175 36.05 169.05 35 168 40.95l5.95 1.05zM217 42.84l-6.16-.84-.84 6.16 6.16.84zM173.46 42l1.54 5.46-5.46 1.54-1.54-5.46zM217 50.05 211.05 49 210 54.95l5.95 1.05zM175 49.84l-6.16-.84-.84 6.16 6.16.84zM216.09 56l.91 6.09-6.09.91-.91-6.09zM210 57.19 204.19 56 203 61.81l5.81 1.19zM203 56.7l-6.3-.7-.7 6.3 7 .7zM196 57.05 190.05 56 189 61.95l5.95 1.05zM189 56.84l-6.16-.84-.84 6.16 6.16.84zM180.46 56l1.54 5.46-5.46 1.54-1.54-5.46zM173.95 56.35l.7 5.6-5.6.7-.7-5.6z"/></g><g style="fill:#3c0b92"><path d="m14.91 217-.91-6.09 6.09-.91.91 6.09zM21 215.81l5.81 1.19 1.19-5.81-5.81-1.19zM28 216.3l6.3.7.7-6.3-7-.7zM35 215.95l5.95 1.05 1.05-5.95-5.95-1.05zM42 216.16l6.16.84.84-6.16-6.16-.84zM50.54 217 49 211.54l5.46-1.54 1.54 5.46zM57.05 216.65l-.7-5.6 5.6-.7.7 5.6zM14 208.95l5.95 1.05 1.05-5.95-5.95-1.05zM56 209.16l6.16.84.84-6.16-6.16-.84zM15.54 203 14 197.54l5.46-1.54 1.54 5.46zM57.05 202.65l-.7-5.6 5.6-.7.7 5.6zM14 195.3l6.3.7.7-6.3-7-.7zM56 194.95l5.95 1.05 1.05-5.95-5.95-1.05zM14 188.16l6.16.84.84-6.16-6.16-.84zM57.54 189 56 183.54l5.46-1.54 1.54 5.46zM14 180.95l5.95 1.05 1.05-5.95-5.95-1.05zM56 181.16l6.16.84.84-6.16-6.16-.84zM14.91 175l-.91-6.09 6.09-.91.91 6.09zM21 173.81l5.81 1.19 1.19-5.81-5.81-1.19zM28 174.3l6.3.7.7-6.3-7-.7zM35 173.95l5.95 1.05 1.05-5.95-5.95-1.05zM42 174.16l6.16.84.84-6.16-6.16-.84zM50.54 175 49 169.54l5.46-1.54 1.54 5.46zM57.05 174.65l-.7-5.6 5.6-.7.7 5.6z"/></g><g style="fill:#571199"><path d="M33.744 49c-3.17 0-5.747-2.527-5.747-5.63v-9.743c0-.97.252-1.882.693-2.68a5.683 5.683 0 0 1 1.756-1.927A5.797 5.797 0 0 1 33.74 28h9.518c3.166 0 5.744 2.524 5.744 5.627v9.743c0 3.103-2.578 5.63-5.744 5.63h-9.515z"/></g><g style="fill:#571199"><path d="M187.744 49c-3.17 0-5.747-2.527-5.747-5.63v-9.743c0-.97.252-1.882.693-2.68a5.683 5.683 0 0 1 1.756-1.927A5.797 5.797 0 0 1 187.74 28h9.518c3.166 0 5.744 2.524 5.744 5.627v9.743c0 3.103-2.578 5.63-5.744 5.63h-9.515z"/></g><g style="fill:#571199"><path d="M33.744 203c-3.17 0-5.747-2.527-5.747-5.63v-9.743c0-.97.252-1.882.693-2.68a5.683 5.683 0 0 1 1.756-1.927A5.797 5.797 0 0 1 33.74 182h9.518c3.166 0 5.744 2.524 5.744 5.627v9.743c0 3.103-2.578 5.63-5.744 5.63h-9.515z"/></g></svg>