<?xml version="1.0" encoding="utf-8"?>
<!DOCTYPE svg PUBLIC "-//W3C//DTD SVG 1.1//EN" "http://www.w3.org/Graphics/SVG/1.1/DTD/svg11.dtd">
<svg version="1.1" id="Layer_1" xmlns="http://www.w3.org/2000/svg" xmlns:xlink="http://www.w3.org/1999/xlink" x="0px" y="0px"
width="231px" height="231px" viewBox="0 0 231 231" enable-background="new 0 0 231 231" xml:space="preserve">
<rect x="0" y="0" width="231" height="231" fill="rgb(255,255,255)" /><g transform="translate(14,14)"><g><defs>
    <linearGradient gradientTransform="rotate(90)" id="grad">
    <stop offset="5%" stop-color="rgb(20,38,178)" />
    <stop offset="95%" stop-color="rgb(18,139,22)" />
    </linearGradient>
<mask id="gmask"><g>
<g transform="translate(56,0) scale(0.07,0.07)"><g transform="" style="fill: rgb(255, 255, 255);">
<g>
	<path d="M100,34.375V0H34.375C24.87,0,16.764,3.353,10.059,10.059S0,24.87,0,34.375V100h100V34.375z"/>
</g>
</g></g><g transform="translate(63,0) scale(0.07,0.07)"><g transform="" style="fill: rgb(255, 255, 255);">
<g>
	<path d="M59.375,0H0v100h59.375L100,50L59.375,0z"/>
</g>
</g></g><g transform="translate(84,0) scale(0.07,0.07)"><g transform="" style="fill: rgb(255, 255, 255);">
<g>
	<path d="M40.625,0H100v100H40.625L0,50L40.625,0z"/>
</g>
</g></g><g transform="translate(91,0) scale(0.07,0.07)"><g transform="" style="fill: rgb(255, 255, 255);">
<g>
	<path d="M100,34.375c0-9.505-3.354-17.611-10.059-24.316S75.131,0,65.625,0H0v100h100V34.375z"/>
</g>
</g></g><g transform="translate(119,0) scale(0.07,0.07)"><g transform="" style="fill: rgb(255, 255, 255);">
<g>
	<path d="M100,34.375V0H34.375C24.87,0,16.764,3.353,10.059,10.059S0,24.87,0,34.375V100h100V34.375z"/>
</g>
</g></g><g transform="translate(126,0) scale(0.07,0.07)"><g transform="" style="fill: rgb(255, 255, 255);">
<rect width="100" height="100"/>
</g></g><g transform="translate(133,0) scale(0.07,0.07)"><g transform="" style="fill: rgb(255, 255, 255);">
<rect width="100" height="100"/>
</g></g><g transform="translate(140,0) scale(0.07,0.07)"><g transform="" style="fill: rgb(255, 255, 255);">
<g>
	<path d="M59.375,0H0v100h59.375L100,50L59.375,0z"/>
</g>
</g></g><g transform="translate(56,7) scale(0.07,0.07)"><g transform="" style="fill: rgb(255, 255, 255);">
<g>
	<path d="M100,59.375V0H0v59.375L50,100L100,59.375z"/>
</g>
</g></g><g transform="translate(91,7) scale(0.07,0.07)"><g transform="" style="fill: rgb(255, 255, 255);">
<rect width="100" height="100"/>
</g></g><g transform="translate(119,7) scale(0.07,0.07)"><g transform="" style="fill: rgb(255, 255, 255);">
<g>
	<path d="M100,59.375V0H0v59.375L50,100L100,59.375z"/>
</g>
</g></g><g transform="translate(63,14) scale(0.07,0.07)"><g transform="" style="fill: rgb(255, 255, 255);">
<g>
	<path d="M100,40.625V100H0V40.625L50,0L100,40.625z"/>
</g>
</g></g><g transform="translate(77,14) scale(0.07,0.07)"><g transform="" style="fill: rgb(255, 255, 255);">
<g>
	<path d="M100,65.625c0,9.506-3.354,17.611-10.059,24.316S75.131,100,65.625,100h-31.25c-9.505,0-17.611-3.354-24.316-10.059
		S0,75.131,0,65.625v-31.25c0-9.505,3.353-17.611,10.059-24.316S24.87,0,34.375,0h31.25c9.506,0,17.611,3.353,24.316,10.059
		S100,24.87,100,34.375V65.625z"/>
</g>
</g></g><g transform="translate(91,14) scale(0.07,0.07)"><g transform="" style="fill: rgb(255, 255, 255);">
<g>
	<path d="M100,0H0v65.625c0,9.506,3.353,17.611,10.059,24.316S24.87,100,34.375,100H100V0z"/>
</g>
</g></g><g transform="translate(98,14) scale(0.07,0.07)"><g transform="" style="fill: rgb(255, 255, 255);">
<rect width="100" height="100"/>
</g></g><g transform="translate(105,14) scale(0.07,0.07)"><g transform="" style="fill: rgb(255, 255, 255);">
<rect width="100" height="100"/>
</g></g><g transform="translate(112,14) scale(0.07,0.07)"><g transform="" style="fill: rgb(255, 255, 255);">
<g>
	<path d="M59.375,0H0v100h59.375L100,50L59.375,0z"/>
</g>
</g></g><g transform="translate(126,14) scale(0.07,0.07)"><g transform="" style="fill: rgb(255, 255, 255);">
<g>
	<path d="M100,65.625c0,9.506-3.354,17.611-10.059,24.316S75.131,100,65.625,100h-31.25c-9.505,0-17.611-3.354-24.316-10.059
		S0,75.131,0,65.625v-31.25c0-9.505,3.353-17.611,10.059-24.316S24.87,0,34.375,0h31.25c9.506,0,17.611,3.353,24.316,10.059
		S100,24.87,100,34.375V65.625z"/>
</g>
</g></g><g transform="translate(140,14) scale(0.07,0.07)"><g transform="" style="fill: rgb(255, 255, 255);">
<g>
	<path d="M100,65.625c0,9.506-3.354,17.611-10.059,24.316S75.131,100,65.625,100h-31.25c-9.505,0-17.611-3.354-24.316-10.059
		S0,75.131,0,65.625v-31.25c0-9.505,3.353-17.611,10.059-24.316S24.87,0,34.375,0h31.25c9.506,0,17.611,3.353,24.316,10.059
		S100,24.87,100,34.375V65.625z"/>
</g>
</g></g><g transform="translate(56,21) scale(0.07,0.07)"><g transform="" style="fill: rgb(255, 255, 255);">
<g>
	<path d="M40.625,0H100v100H40.625L0,50L40.625,0z"/>
</g>
</g></g><g transform="translate(63,21) scale(0.07,0.07)"><g transform="" style="fill: rgb(255, 255, 255);">
<rect width="100" height="100"/>
</g></g><g transform="translate(70,21) scale(0.07,0.07)"><g transform="" style="fill: rgb(255, 255, 255);">
<g>
	<path d="M59.375,0H0v100h59.375L100,50L59.375,0z"/>
</g>
</g></g><g transform="translate(84,21) scale(0.07,0.07)"><g transform="" style="fill: rgb(255, 255, 255);">
<g>
	<path d="M100,65.625c0,9.506-3.354,17.611-10.059,24.316S75.131,100,65.625,100h-31.25c-9.505,0-17.611-3.354-24.316-10.059
		S0,75.131,0,65.625v-31.25c0-9.505,3.353-17.611,10.059-24.316S24.87,0,34.375,0h31.25c9.506,0,17.611,3.353,24.316,10.059
		S100,24.87,100,34.375V65.625z"/>
</g>
</g></g><g transform="translate(105,21) scale(0.07,0.07)"><g transform="" style="fill: rgb(255, 255, 255);">
<rect width="100" height="100"/>
</g></g><g transform="translate(119,21) scale(0.07,0.07)"><g transform="" style="fill: rgb(255, 255, 255);">
<g>
	<path d="M100,40.625V100H0V40.625L50,0L100,40.625z"/>
</g>
</g></g><g transform="translate(63,28) scale(0.07,0.07)"><g transform="" style="fill: rgb(255, 255, 255);">
<g>
	<path d="M100,59.375V0H0v59.375L50,100L100,59.375z"/>
</g>
</g></g><g transform="translate(91,28) scale(0.07,0.07)"><g transform="" style="fill: rgb(255, 255, 255);">
<g>
	<path d="M40.625,0H100v100H40.625L0,50L40.625,0z"/>
</g>
</g></g><g transform="translate(98,28) scale(0.07,0.07)"><g transform="" style="fill: rgb(255, 255, 255);">
<rect width="100" height="100"/>
</g></g><g transform="translate(105,28) scale(0.07,0.07)"><g transform="" style="fill: rgb(255, 255, 255);">
<rect width="100" height="100"/>
</g></g><g transform="translate(112,28) scale(0.07,0.07)"><g transform="" style="fill: rgb(255, 255, 255);">
<rect width="100" height="100"/>
</g></g><g transform="translate(119,28) scale(0.07,0.07)"><g transform="" style="fill: rgb(255, 255, 255);">
<rect width="100" height="100"/>
</g></g><g transform="translate(126,28) scale(0.07,0.07)"><g transform="" style="fill: rgb(255, 255, 255);">
<rect width="100" height="100"/>
</g></g><g transform="translate(133,28) scale(0.07,0.07)"><g transform="" style="fill: rgb(255, 255, 255);">
<g>
	<path d="M100,34.375c0-9.505-3.354-17.611-10.059-24.316S75.131,0,65.625,0H0v100h100V34.375z"/>
</g>
</g></g><g transform="translate(70,35) scale(0.07,0.07)"><g transform="" style="fill: rgb(255, 255, 255);">
<g>
	<path d="M100,40.625V100H0V40.625L50,0L100,40.625z"/>
</g>
</g></g><g transform="translate(84,35) scale(0.07,0.07)"><g transform="" style="fill: rgb(255, 255, 255);">
<g>
	<path d="M100,40.625V100H0V40.625L50,0L100,40.625z"/>
</g>
</g></g><g transform="translate(98,35) scale(0.07,0.07)"><g transform="" style="fill: rgb(255, 255, 255);">
<rect width="100" height="100"/>
</g></g><g transform="translate(126,35) scale(0.07,0.07)"><g transform="" style="fill: rgb(255, 255, 255);">
<rect width="100" height="100"/>
</g></g><g transform="translate(133,35) scale(0.07,0.07)"><g transform="" style="fill: rgb(255, 255, 255);">
<g>
	<path d="M100,0H0v100h65.625c9.506,0,17.611-3.354,24.316-10.059S100,75.131,100,65.625V0z"/>
</g>
</g></g><g transform="translate(56,42) scale(0.07,0.07)"><g transform="" style="fill: rgb(255, 255, 255);">
<g>
	<path d="M100,40.625V100H0V40.625L50,0L100,40.625z"/>
</g>
</g></g><g transform="translate(70,42) scale(0.07,0.07)"><g transform="" style="fill: rgb(255, 255, 255);">
<rect width="100" height="100"/>
</g></g><g transform="translate(84,42) scale(0.07,0.07)"><g transform="" style="fill: rgb(255, 255, 255);">
<g>
	<path d="M100,59.375V0H0v59.375L50,100L100,59.375z"/>
</g>
</g></g><g transform="translate(98,42) scale(0.07,0.07)"><g transform="" style="fill: rgb(255, 255, 255);">
<rect width="100" height="100"/>
</g></g><g transform="translate(112,42) scale(0.07,0.07)"><g transform="" style="fill: rgb(255, 255, 255);">
<g>
	<path d="M100,40.625V100H0V40.625L50,0L100,40.625z"/>
</g>
</g></g><g transform="translate(126,42) scale(0.07,0.07)"><g transform="" style="fill: rgb(255, 255, 255);">
<g>
	<path d="M100,59.375V0H0v59.375L50,100L100,59.375z"/>
</g>
</g></g><g transform="translate(140,42) scale(0.07,0.07)"><g transform="" style="fill: rgb(255, 255, 255);">
<g>
	<path d="M100,65.625c0,9.506-3.354,17.611-10.059,24.316S75.131,100,65.625,100h-31.25c-9.505,0-17.611-3.354-24.316-10.059
		S0,75.131,0,65.625v-31.25c0-9.505,3.353-17.611,10.059-24.316S24.87,0,34.375,0h31.25c9.506,0,17.611,3.353,24.316,10.059
		S100,24.87,100,34.375V65.625z"/>
</g>
</g></g><g transform="translate(56,49) scale(0.07,0.07)"><g transform="" style="fill: rgb(255, 255, 255);">
<g>
	<path d="M100,0H0v65.625c0,9.506,3.353,17.611,10.059,24.316S24.87,100,34.375,100H100V0z"/>
</g>
</g></g><g transform="translate(63,49) scale(0.07,0.07)"><g transform="" style="fill: rgb(255, 255, 255);">
<rect width="100" height="100"/>
</g></g><g transform="translate(70,49) scale(0.07,0.07)"><g transform="" style="fill: rgb(255, 255, 255);">
<rect width="100" height="100"/>
</g></g><g transform="translate(77,49) scale(0.07,0.07)"><g transform="" style="fill: rgb(255, 255, 255);">
<g>
	<path d="M100,34.375c0-9.505-3.354-17.611-10.059-24.316S75.131,0,65.625,0H0v100h100V34.375z"/>
</g>
</g></g><g transform="translate(91,49) scale(0.07,0.07)"><g transform="" style="fill: rgb(255, 255, 255);">
<g>
	<path d="M100,34.375V0H34.375C24.87,0,16.764,3.353,10.059,10.059S0,24.87,0,34.375V100h100V34.375z"/>
</g>
</g></g><g transform="translate(98,49) scale(0.07,0.07)"><g transform="" style="fill: rgb(255, 255, 255);">
<rect width="100" height="100"/>
</g></g><g transform="translate(112,49) scale(0.07,0.07)"><g transform="" style="fill: rgb(255, 255, 255);">
<rect width="100" height="100"/>
</g></g><g transform="translate(119,49) scale(0.07,0.07)"><g transform="" style="fill: rgb(255, 255, 255);">
<g>
	<path d="M100,34.375c0-9.505-3.354-17.611-10.059-24.316S75.131,0,65.625,0H0v100h100V34.375z"/>
</g>
</g></g><g transform="translate(133,49) scale(0.07,0.07)"><g transform="" style="fill: rgb(255, 255, 255);">
<g>
	<path d="M100,65.625c0,9.506-3.354,17.611-10.059,24.316S75.131,100,65.625,100h-31.25c-9.505,0-17.611-3.354-24.316-10.059
		S0,75.131,0,65.625v-31.25c0-9.505,3.353-17.611,10.059-24.316S24.87,0,34.375,0h31.25c9.506,0,17.611,3.353,24.316,10.059
		S100,24.87,100,34.375V65.625z"/>
</g>
</g></g><g transform="translate(0,56) scale(0.07,0.07)"><g transform="" style="fill: rgb(255, 255, 255);">
<g>
	<path d="M100,40.625V100H0V40.625L50,0L100,40.625z"/>
</g>
</g></g><g transform="translate(14,56) scale(0.07,0.07)"><g transform="" style="fill: rgb(255, 255, 255);">
<g>
	<path d="M40.625,0H100v100H40.625L0,50L40.625,0z"/>
</g>
</g></g><g transform="translate(21,56) scale(0.07,0.07)"><g transform="" style="fill: rgb(255, 255, 255);">
<g>
	<path d="M59.375,0H0v100h59.375L100,50L59.375,0z"/>
</g>
</g></g><g transform="translate(35,56) scale(0.07,0.07)"><g transform="" style="fill: rgb(255, 255, 255);">
<g>
	<path d="M40.625,0H100v100H40.625L0,50L40.625,0z"/>
</g>
</g></g><g transform="translate(42,56) scale(0.07,0.07)"><g transform="" style="fill: rgb(255, 255, 255);">
<rect width="100" height="100"/>
</g></g><g transform="translate(49,56) scale(0.07,0.07)"><g transform="" style="fill: rgb(255, 255, 255);">
<g>
	<path d="M100,34.375c0-9.505-3.354-17.611-10.059-24.316S75.131,0,65.625,0H0v100h100V34.375z"/>
</g>
</g></g><g transform="translate(63,56) scale(0.07,0.07)"><g transform="" style="fill: rgb(255, 255, 255);">
<g>
	<path d="M100,0H0v65.625c0,9.506,3.353,17.611,10.059,24.316S24.87,100,34.375,100H100V0z"/>
</g>
</g></g><g transform="translate(70,56) scale(0.07,0.07)"><g transform="" style="fill: rgb(255, 255, 255);">
<rect width="100" height="100"/>
</g></g><g transform="translate(77,56) scale(0.07,0.07)"><g transform="" style="fill: rgb(255, 255, 255);">
<g>
	<path d="M100,0H0v100h65.625c9.506,0,17.611-3.354,24.316-10.059S100,75.131,100,65.625V0z"/>
</g>
</g></g><g transform="translate(91,56) scale(0.07,0.07)"><g transform="" style="fill: rgb(255, 255, 255);">
<g>
	<path d="M100,0H0v65.625c0,9.506,3.353,17.611,10.059,24.316S24.87,100,34.375,100H100V0z"/>
</g>
</g></g><g transform="translate(98,56) scale(0.07,0.07)"><g transform="" style="fill: rgb(255, 255, 255);">
<g>
	<path d="M100,0H0v100h65.625c9.506,0,17.611-3.354,24.316-10.059S100,75.131,100,65.625V0z"/>
</g>
</g></g><g transform="translate(112,56) scale(0.07,0.07)"><g transform="" style="fill: rgb(255, 255, 255);">
<rect width="100" height="100"/>
</g></g><g transform="translate(119,56) scale(0.07,0.07)"><g transform="" style="fill: rgb(255, 255, 255);">
<rect width="100" height="100"/>
</g></g><g transform="translate(126,56) scale(0.07,0.07)"><g transform="" style="fill: rgb(255, 255, 255);">
<g>
	<path d="M100,34.375c0-9.505-3.354-17.611-10.059-24.316S75.131,0,65.625,0H0v100h100V34.375z"/>
</g>
</g></g><g transform="translate(154,56) scale(0.07,0.07)"><g transform="" style="fill: rgb(255, 255, 255);">
<g>
	<path d="M100,40.625V100H0V40.625L50,0L100,40.625z"/>
</g>
</g></g><g transform="translate(175,56) scale(0.07,0.07)"><g transform="" style="fill: rgb(255, 255, 255);">
<g>
	<path d="M100,65.625c0,9.506-3.354,17.611-10.059,24.316S75.131,100,65.625,100h-31.25c-9.505,0-17.611-3.354-24.316-10.059
		S0,75.131,0,65.625v-31.25c0-9.505,3.353-17.611,10.059-24.316S24.87,0,34.375,0h31.25c9.506,0,17.611,3.353,24.316,10.059
		S100,24.87,100,34.375V65.625z"/>
</g>
</g></g><g transform="translate(189,56) scale(0.07,0.07)"><g transform="" style="fill: rgb(255, 255, 255);">
<g>
	<path d="M40.625,0H100v100H40.625L0,50L40.625,0z"/>
</g>
</g></g><g transform="translate(196,56) scale(0.07,0.07)"><g transform="" style="fill: rgb(255, 255, 255);">
<g>
	<path d="M100,34.375c0-9.505-3.354-17.611-10.059-24.316S75.131,0,65.625,0H0v100h100V34.375z"/>
</g>
</g></g><g transform="translate(0,63) scale(0.07,0.07)"><g transform="" style="fill: rgb(255, 255, 255);">
<rect width="100" height="100"/>
</g></g><g transform="translate(7,63) scale(0.07,0.07)"><g transform="" style="fill: rgb(255, 255, 255);">
<g>
	<path d="M100,34.375c0-9.505-3.354-17.611-10.059-24.316S75.131,0,65.625,0H0v100h100V34.375z"/>
</g>
</g></g><g transform="translate(49,63) scale(0.07,0.07)"><g transform="" style="fill: rgb(255, 255, 255);">
<g>
	<path d="M100,59.375V0H0v59.375L50,100L100,59.375z"/>
</g>
</g></g><g transform="translate(70,63) scale(0.07,0.07)"><g transform="" style="fill: rgb(255, 255, 255);">
<g>
	<path d="M100,59.375V0H0v59.375L50,100L100,59.375z"/>
</g>
</g></g><g transform="translate(112,63) scale(0.07,0.07)"><g transform="" style="fill: rgb(255, 255, 255);">
<rect width="100" height="100"/>
</g></g><g transform="translate(119,63) scale(0.07,0.07)"><g transform="" style="fill: rgb(255, 255, 255);">
<rect width="100" height="100"/>
</g></g><g transform="translate(126,63) scale(0.07,0.07)"><g transform="" style="fill: rgb(255, 255, 255);">
<rect width="100" height="100"/>
</g></g><g transform="translate(133,63) scale(0.07,0.07)"><g transform="" style="fill: rgb(255, 255, 255);">
<g>
	<path d="M59.375,0H0v100h59.375L100,50L59.375,0z"/>
</g>
</g></g><g transform="translate(147,63) scale(0.07,0.07)"><g transform="" style="fill: rgb(255, 255, 255);">
<g>
	<path d="M100,34.375V0H34.375C24.87,0,16.764,3.353,10.059,10.059S0,24.87,0,34.375V100h100V34.375z"/>
</g>
</g></g><g transform="translate(154,63) scale(0.07,0.07)"><g transform="" style="fill: rgb(255, 255, 255);">
<rect width="100" height="100"/>
</g></g><g transform="translate(161,63) scale(0.07,0.07)"><g transform="" style="fill: rgb(255, 255, 255);">
<rect width="100" height="100"/>
</g></g><g transform="translate(168,63) scale(0.07,0.07)"><g transform="" style="fill: rgb(255, 255, 255);">
<g>
	<path d="M59.375,0H0v100h59.375L100,50L59.375,0z"/>
</g>
</g></g><g transform="translate(196,63) scale(0.07,0.07)"><g transform="" style="fill: rgb(255, 255, 255);">
<g>
	<path d="M100,59.375V0H0v59.375L50,100L100,59.375z"/>
</g>
</g></g><g transform="translate(0,70) scale(0.07,0.07)"><g transform="" style="fill: rgb(255, 255, 255);">
<g>
	<path d="M100,0H0v65.625c0,9.506,3.353,17.611,10.059,24.316S24.87,100,34.375,100H100V0z"/>
</g>
</g></g><g transform="translate(7,70) scale(0.07,0.07)"><g transform="" style="fill: rgb(255, 255, 255);">
<rect width="100" height="100"/>
</g></g><g transform="translate(14,70) scale(0.07,0.07)"><g transform="" style="fill: rgb(255, 255, 255);">
<g>
	<path d="M59.375,0H0v100h59.375L100,50L59.375,0z"/>
</g>
</g></g><g transform="translate(28,70) scale(0.07,0.07)"><g transform="" style="fill: rgb(255, 255, 255);">
<g>
	<path d="M100,40.625V100H0V40.625L50,0L100,40.625z"/>
</g>
</g></g><g transform="translate(42,70) scale(0.07,0.07)"><g transform="" style="fill: rgb(255, 255, 255);">
<g>
	<path d="M100,65.625c0,9.506-3.354,17.611-10.059,24.316S75.131,100,65.625,100h-31.25c-9.505,0-17.611-3.354-24.316-10.059
		S0,75.131,0,65.625v-31.25c0-9.505,3.353-17.611,10.059-24.316S24.87,0,34.375,0h31.25c9.506,0,17.611,3.353,24.316,10.059
		S100,24.87,100,34.375V65.625z"/>
</g>
</g></g><g transform="translate(63,70) scale(0.07,0.07)"><g transform="" style="fill: rgb(255, 255, 255);">
<g>
	<path d="M100,65.625c0,9.506-3.354,17.611-10.059,24.316S75.131,100,65.625,100h-31.25c-9.505,0-17.611-3.354-24.316-10.059
		S0,75.131,0,65.625v-31.25c0-9.505,3.353-17.611,10.059-24.316S24.87,0,34.375,0h31.25c9.506,0,17.611,3.353,24.316,10.059
		S100,24.87,100,34.375V65.625z"/>
</g>
</g></g><g transform="translate(77,70) scale(0.07,0.07)"><g transform="" style="fill: rgb(255, 255, 255);">
<g>
	<path d="M40.625,0H100v100H40.625L0,50L40.625,0z"/>
</g>
</g></g><g transform="translate(84,70) scale(0.07,0.07)"><g transform="" style="fill: rgb(255, 255, 255);">
<g>
	<path d="M100,34.375c0-9.505-3.354-17.611-10.059-24.316S75.131,0,65.625,0H0v100h100V34.375z"/>
</g>
</g></g><g transform="translate(98,70) scale(0.07,0.07)"><g transform="" style="fill: rgb(255, 255, 255);">
<g>
	<path d="M100,40.625V100H0V40.625L50,0L100,40.625z"/>
</g>
</g></g><g transform="translate(112,70) scale(0.07,0.07)"><g transform="" style="fill: rgb(255, 255, 255);">
<g>
	<path d="M100,0H0v65.625c0,9.506,3.353,17.611,10.059,24.316S24.87,100,34.375,100H100V0z"/>
</g>
</g></g><g transform="translate(119,70) scale(0.07,0.07)"><g transform="" style="fill: rgb(255, 255, 255);">
<g>
	<path d="M100,0H0v100h65.625c9.506,0,17.611-3.354,24.316-10.059S100,75.131,100,65.625V0z"/>
</g>
</g></g><g transform="translate(140,70) scale(0.07,0.07)"><g transform="" style="fill: rgb(255, 255, 255);">
<g>
	<path d="M100,34.375V0H34.375C24.87,0,16.764,3.353,10.059,10.059S0,24.87,0,34.375V100h100V34.375z"/>
</g>
</g></g><g transform="translate(147,70) scale(0.07,0.07)"><g transform="" style="fill: rgb(255, 255, 255);">
<rect width="100" height="100"/>
</g></g><g transform="translate(154,70) scale(0.07,0.07)"><g transform="" style="fill: rgb(255, 255, 255);">
<rect width="100" height="100"/>
</g></g><g transform="translate(182,70) scale(0.07,0.07)"><g transform="" style="fill: rgb(255, 255, 255);">
<g>
	<path d="M40.625,0H100v100H40.625L0,50L40.625,0z"/>
</g>
</g></g><g transform="translate(189,70) scale(0.07,0.07)"><g transform="" style="fill: rgb(255, 255, 255);">
<g>
	<path d="M59.375,0H0v100h59.375L100,50L59.375,0z"/>
</g>
</g></g><g transform="translate(7,77) scale(0.07,0.07)"><g transform="" style="fill: rgb(255, 255, 255);">
<rect width="100" height="100"/>
</g></g><g transform="translate(21,77) scale(0.07,0.07)"><g transform="" style="fill: rgb(255, 255, 255);">
<g>
	<path d="M40.625,0H100v100H40.625L0,50L40.625,0z"/>
</g>
</g></g><g transform="translate(28,77) scale(0.07,0.07)"><g transform="" style="fill: rgb(255, 255, 255);">
<g>
	<path d="M100,0H0v100h65.625c9.506,0,17.611-3.354,24.316-10.059S100,75.131,100,65.625V0z"/>
</g>
</g></g><g transform="translate(49,77) scale(0.07,0.07)"><g transform="" style="fill: rgb(255, 255, 255);">
<g>
	<path d="M100,40.625V100H0V40.625L50,0L100,40.625z"/>
</g>
</g></g><g transform="translate(70,77) scale(0.07,0.07)"><g transform="" style="fill: rgb(255, 255, 255);">
<g>
	<path d="M100,65.625c0,9.506-3.354,17.611-10.059,24.316S75.131,100,65.625,100h-31.25c-9.505,0-17.611-3.354-24.316-10.059
		S0,75.131,0,65.625v-31.25c0-9.505,3.353-17.611,10.059-24.316S24.87,0,34.375,0h31.25c9.506,0,17.611,3.353,24.316,10.059
		S100,24.87,100,34.375V65.625z"/>
</g>
</g></g><g transform="translate(84,77) scale(0.07,0.07)"><g transform="" style="fill: rgb(255, 255, 255);">
<g>
	<path d="M100,0H0v65.625c0,9.506,3.353,17.611,10.059,24.316S24.87,100,34.375,100H100V0z"/>
</g>
</g></g><g transform="translate(91,77) scale(0.07,0.07)"><g transform="" style="fill: rgb(255, 255, 255);">
<rect width="100" height="100"/>
</g></g><g transform="translate(98,77) scale(0.07,0.07)"><g transform="" style="fill: rgb(255, 255, 255);">
<rect width="100" height="100"/>
</g></g><g transform="translate(105,77) scale(0.07,0.07)"><g transform="" style="fill: rgb(255, 255, 255);">
<g>
	<path d="M100,34.375c0-9.505-3.354-17.611-10.059-24.316S75.131,0,65.625,0H0v100h100V34.375z"/>
</g>
</g></g><g transform="translate(140,77) scale(0.07,0.07)"><g transform="" style="fill: rgb(255, 255, 255);">
<rect width="100" height="100"/>
</g></g><g transform="translate(147,77) scale(0.07,0.07)"><g transform="" style="fill: rgb(255, 255, 255);">
<rect width="100" height="100"/>
</g></g><g transform="translate(154,77) scale(0.07,0.07)"><g transform="" style="fill: rgb(255, 255, 255);">
<g>
	<path d="M100,0H0v100h65.625c9.506,0,17.611-3.354,24.316-10.059S100,75.131,100,65.625V0z"/>
</g>
</g></g><g transform="translate(168,77) scale(0.07,0.07)"><g transform="" style="fill: rgb(255, 255, 255);">
<g>
	<path d="M100,65.625c0,9.506-3.354,17.611-10.059,24.316S75.131,100,65.625,100h-31.25c-9.505,0-17.611-3.354-24.316-10.059
		S0,75.131,0,65.625v-31.25c0-9.505,3.353-17.611,10.059-24.316S24.87,0,34.375,0h31.25c9.506,0,17.611,3.353,24.316,10.059
		S100,24.87,100,34.375V65.625z"/>
</g>
</g></g><g transform="translate(196,77) scale(0.07,0.07)"><g transform="" style="fill: rgb(255, 255, 255);">
<g>
	<path d="M100,65.625c0,9.506-3.354,17.611-10.059,24.316S75.131,100,65.625,100h-31.25c-9.505,0-17.611-3.354-24.316-10.059
		S0,75.131,0,65.625v-31.25c0-9.505,3.353-17.611,10.059-24.316S24.87,0,34.375,0h31.25c9.506,0,17.611,3.353,24.316,10.059
		S100,24.87,100,34.375V65.625z"/>
</g>
</g></g><g transform="translate(0,84) scale(0.07,0.07)"><g transform="" style="fill: rgb(255, 255, 255);">
<g>
	<path d="M40.625,0H100v100H40.625L0,50L40.625,0z"/>
</g>
</g></g><g transform="translate(7,84) scale(0.07,0.07)"><g transform="" style="fill: rgb(255, 255, 255);">
<rect width="100" height="100"/>
</g></g><g transform="translate(42,84) scale(0.07,0.07)"><g transform="" style="fill: rgb(255, 255, 255);">
<g>
	<path d="M40.625,0H100v100H40.625L0,50L40.625,0z"/>
</g>
</g></g><g transform="translate(49,84) scale(0.07,0.07)"><g transform="" style="fill: rgb(255, 255, 255);">
<rect width="100" height="100"/>
</g></g><g transform="translate(56,84) scale(0.07,0.07)"><g transform="" style="fill: rgb(255, 255, 255);">
<rect width="100" height="100"/>
</g></g><g transform="translate(63,84) scale(0.07,0.07)"><g transform="" style="fill: rgb(255, 255, 255);">
<g>
	<path d="M59.375,0H0v100h59.375L100,50L59.375,0z"/>
</g>
</g></g><g transform="translate(105,84) scale(0.07,0.07)"><g transform="" style="fill: rgb(255, 255, 255);">
<g>
	<path d="M100,0H0v65.625c0,9.506,3.353,17.611,10.059,24.316S24.87,100,34.375,100H100V0z"/>
</g>
</g></g><g transform="translate(112,84) scale(0.07,0.07)"><g transform="" style="fill: rgb(255, 255, 255);">
<rect width="100" height="100"/>
</g></g><g transform="translate(119,84) scale(0.07,0.07)"><g transform="" style="fill: rgb(255, 255, 255);">
<g>
	<path d="M100,34.375c0-9.505-3.354-17.611-10.059-24.316S75.131,0,65.625,0H0v100h100V34.375z"/>
</g>
</g></g><g transform="translate(140,84) scale(0.07,0.07)"><g transform="" style="fill: rgb(255, 255, 255);">
<g>
	<path d="M100,59.375V0H0v59.375L50,100L100,59.375z"/>
</g>
</g></g><g transform="translate(175,84) scale(0.07,0.07)"><g transform="" style="fill: rgb(255, 255, 255);">
<g>
	<path d="M40.625,0H100v100H40.625L0,50L40.625,0z"/>
</g>
</g></g><g transform="translate(182,84) scale(0.07,0.07)"><g transform="" style="fill: rgb(255, 255, 255);">
<g>
	<path d="M100,34.375c0-9.505-3.354-17.611-10.059-24.316S75.131,0,65.625,0H0v100h100V34.375z"/>
</g>
</g></g><g transform="translate(7,91) scale(0.07,0.07)"><g transform="" style="fill: rgb(255, 255, 255);">
<g>
	<path d="M100,59.375V0H0v59.375L50,100L100,59.375z"/>
</g>
</g></g><g transform="translate(21,91) scale(0.07,0.07)"><g transform="" style="fill: rgb(255, 255, 255);">
<g>
	<path d="M100,34.375V0H34.375C24.87,0,16.764,3.353,10.059,10.059S0,24.87,0,34.375V100h100V34.375z"/>
</g>
</g></g><g transform="translate(28,91) scale(0.07,0.07)"><g transform="" style="fill: rgb(255, 255, 255);">
<g>
	<path d="M100,34.375c0-9.505-3.354-17.611-10.059-24.316S75.131,0,65.625,0H0v100h100V34.375z"/>
</g>
</g></g><g transform="translate(77,91) scale(0.07,0.07)"><g transform="" style="fill: rgb(255, 255, 255);">
<g>
	<path d="M100,34.375V0H34.375C24.87,0,16.764,3.353,10.059,10.059S0,24.87,0,34.375V100h100V34.375z"/>
</g>
</g></g><g transform="translate(84,91) scale(0.07,0.07)"><g transform="" style="fill: rgb(255, 255, 255);">
<rect width="100" height="100"/>
</g></g><g transform="translate(91,91) scale(0.07,0.07)"><g transform="" style="fill: rgb(255, 255, 255);">
<g>
	<path d="M59.375,0H0v100h59.375L100,50L59.375,0z"/>
</g>
</g></g><g transform="translate(112,91) scale(0.07,0.07)"><g transform="" style="fill: rgb(255, 255, 255);">
<g>
	<path d="M100,0H0v65.625c0,9.506,3.353,17.611,10.059,24.316S24.87,100,34.375,100H100V0z"/>
</g>
</g></g><g transform="translate(119,91) scale(0.07,0.07)"><g transform="" style="fill: rgb(255, 255, 255);">
<rect width="100" height="100"/>
</g></g><g transform="translate(126,91) scale(0.07,0.07)"><g transform="" style="fill: rgb(255, 255, 255);">
<rect width="100" height="100"/>
</g></g><g transform="translate(133,91) scale(0.07,0.07)"><g transform="" style="fill: rgb(255, 255, 255);">
<g>
	<path d="M100,34.375c0-9.505-3.354-17.611-10.059-24.316S75.131,0,65.625,0H0v100h100V34.375z"/>
</g>
</g></g><g transform="translate(147,91) scale(0.07,0.07)"><g transform="" style="fill: rgb(255, 255, 255);">
<g>
	<path d="M40.625,0H100v100H40.625L0,50L40.625,0z"/>
</g>
</g></g><g transform="translate(154,91) scale(0.07,0.07)"><g transform="" style="fill: rgb(255, 255, 255);">
<g>
	<path d="M59.375,0H0v100h59.375L100,50L59.375,0z"/>
</g>
</g></g><g transform="translate(182,91) scale(0.07,0.07)"><g transform="" style="fill: rgb(255, 255, 255);">
<rect width="100" height="100"/>
</g></g><g transform="translate(189,91) scale(0.07,0.07)"><g transform="" style="fill: rgb(255, 255, 255);">
<rect width="100" height="100"/>
</g></g><g transform="translate(196,91) scale(0.07,0.07)"><g transform="" style="fill: rgb(255, 255, 255);">
<g>
	<path d="M100,34.375c0-9.505-3.354-17.611-10.059-24.316S75.131,0,65.625,0H0v100h100V34.375z"/>
</g>
</g></g><g transform="translate(21,98) scale(0.07,0.07)"><g transform="" style="fill: rgb(255, 255, 255);">
<g>
	<path d="M100,0H0v65.625c0,9.506,3.353,17.611,10.059,24.316S24.87,100,34.375,100H100V0z"/>
</g>
</g></g><g transform="translate(28,98) scale(0.07,0.07)"><g transform="" style="fill: rgb(255, 255, 255);">
<rect width="100" height="100"/>
</g></g><g transform="translate(35,98) scale(0.07,0.07)"><g transform="" style="fill: rgb(255, 255, 255);">
<rect width="100" height="100"/>
</g></g><g transform="translate(42,98) scale(0.07,0.07)"><g transform="" style="fill: rgb(255, 255, 255);">
<g>
	<path d="M59.375,0H0v100h59.375L100,50L59.375,0z"/>
</g>
</g></g><g transform="translate(56,98) scale(0.07,0.07)"><g transform="" style="fill: rgb(255, 255, 255);">
<g>
	<path d="M100,65.625c0,9.506-3.354,17.611-10.059,24.316S75.131,100,65.625,100h-31.25c-9.505,0-17.611-3.354-24.316-10.059
		S0,75.131,0,65.625v-31.25c0-9.505,3.353-17.611,10.059-24.316S24.87,0,34.375,0h31.25c9.506,0,17.611,3.353,24.316,10.059
		S100,24.87,100,34.375V65.625z"/>
</g>
</g></g><g transform="translate(77,98) scale(0.07,0.07)"><g transform="" style="fill: rgb(255, 255, 255);">
<g>
	<path d="M100,59.375V0H0v59.375L50,100L100,59.375z"/>
</g>
</g></g><g transform="translate(98,98) scale(0.07,0.07)"><g transform="" style="fill: rgb(255, 255, 255);">
<g>
	<path d="M100,65.625c0,9.506-3.354,17.611-10.059,24.316S75.131,100,65.625,100h-31.25c-9.505,0-17.611-3.354-24.316-10.059
		S0,75.131,0,65.625v-31.25c0-9.505,3.353-17.611,10.059-24.316S24.87,0,34.375,0h31.25c9.506,0,17.611,3.353,24.316,10.059
		S100,24.87,100,34.375V65.625z"/>
</g>
</g></g><g transform="translate(126,98) scale(0.07,0.07)"><g transform="" style="fill: rgb(255, 255, 255);">
<g>
	<path d="M100,0H0v65.625c0,9.506,3.353,17.611,10.059,24.316S24.87,100,34.375,100H100V0z"/>
</g>
</g></g><g transform="translate(133,98) scale(0.07,0.07)"><g transform="" style="fill: rgb(255, 255, 255);">
<rect width="100" height="100"/>
</g></g><g transform="translate(140,98) scale(0.07,0.07)"><g transform="" style="fill: rgb(255, 255, 255);">
<g>
	<path d="M100,34.375c0-9.505-3.354-17.611-10.059-24.316S75.131,0,65.625,0H0v100h100V34.375z"/>
</g>
</g></g><g transform="translate(161,98) scale(0.07,0.07)"><g transform="" style="fill: rgb(255, 255, 255);">
<g>
	<path d="M40.625,0H100v100H40.625L0,50L40.625,0z"/>
</g>
</g></g><g transform="translate(168,98) scale(0.07,0.07)"><g transform="" style="fill: rgb(255, 255, 255);">
<g>
	<path d="M100,34.375c0-9.505-3.354-17.611-10.059-24.316S75.131,0,65.625,0H0v100h100V34.375z"/>
</g>
</g></g><g transform="translate(182,98) scale(0.07,0.07)"><g transform="" style="fill: rgb(255, 255, 255);">
<g>
	<path d="M100,0H0v65.625c0,9.506,3.353,17.611,10.059,24.316S24.87,100,34.375,100H100V0z"/>
</g>
</g></g><g transform="translate(189,98) scale(0.07,0.07)"><g transform="" style="fill: rgb(255, 255, 255);">
<rect width="100" height="100"/>
</g></g><g transform="translate(196,98) scale(0.07,0.07)"><g transform="" style="fill: rgb(255, 255, 255);">
<g>
	<path d="M100,0H0v100h65.625c9.506,0,17.611-3.354,24.316-10.059S100,75.131,100,65.625V0z"/>
</g>
</g></g><g transform="translate(0,105) scale(0.07,0.07)"><g transform="" style="fill: rgb(255, 255, 255);">
<g>
	<path d="M100,65.625c0,9.506-3.354,17.611-10.059,24.316S75.131,100,65.625,100h-31.25c-9.505,0-17.611-3.354-24.316-10.059
		S0,75.131,0,65.625v-31.25c0-9.505,3.353-17.611,10.059-24.316S24.87,0,34.375,0h31.25c9.506,0,17.611,3.353,24.316,10.059
		S100,24.87,100,34.375V65.625z"/>
</g>
</g></g><g transform="translate(14,105) scale(0.07,0.07)"><g transform="" style="fill: rgb(255, 255, 255);">
<g>
	<path d="M100,65.625c0,9.506-3.354,17.611-10.059,24.316S75.131,100,65.625,100h-31.25c-9.505,0-17.611-3.354-24.316-10.059
		S0,75.131,0,65.625v-31.25c0-9.505,3.353-17.611,10.059-24.316S24.87,0,34.375,0h31.25c9.506,0,17.611,3.353,24.316,10.059
		S100,24.87,100,34.375V65.625z"/>
</g>
</g></g><g transform="translate(49,105) scale(0.07,0.07)"><g transform="" style="fill: rgb(255, 255, 255);">
<g>
	<path d="M100,65.625c0,9.506-3.354,17.611-10.059,24.316S75.131,100,65.625,100h-31.25c-9.505,0-17.611-3.354-24.316-10.059
		S0,75.131,0,65.625v-31.25c0-9.505,3.353-17.611,10.059-24.316S24.87,0,34.375,0h31.25c9.506,0,17.611,3.353,24.316,10.059
		S100,24.87,100,34.375V65.625z"/>
</g>
</g></g><g transform="translate(63,105) scale(0.07,0.07)"><g transform="" style="fill: rgb(255, 255, 255);">
<g>
	<path d="M100,40.625V100H0V40.625L50,0L100,40.625z"/>
</g>
</g></g><g transform="translate(91,105) scale(0.07,0.07)"><g transform="" style="fill: rgb(255, 255, 255);">
<g>
	<path d="M100,65.625c0,9.506-3.354,17.611-10.059,24.316S75.131,100,65.625,100h-31.25c-9.505,0-17.611-3.354-24.316-10.059
		S0,75.131,0,65.625v-31.25c0-9.505,3.353-17.611,10.059-24.316S24.87,0,34.375,0h31.25c9.506,0,17.611,3.353,24.316,10.059
		S100,24.87,100,34.375V65.625z"/>
</g>
</g></g><g transform="translate(105,105) scale(0.07,0.07)"><g transform="" style="fill: rgb(255, 255, 255);">
<g>
	<path d="M100,40.625V100H0V40.625L50,0L100,40.625z"/>
</g>
</g></g><g transform="translate(133,105) scale(0.07,0.07)"><g transform="" style="fill: rgb(255, 255, 255);">
<rect width="100" height="100"/>
</g></g><g transform="translate(140,105) scale(0.07,0.07)"><g transform="" style="fill: rgb(255, 255, 255);">
<rect width="100" height="100"/>
</g></g><g transform="translate(147,105) scale(0.07,0.07)"><g transform="" style="fill: rgb(255, 255, 255);">
<g>
	<path d="M100,34.375c0-9.505-3.354-17.611-10.059-24.316S75.131,0,65.625,0H0v100h100V34.375z"/>
</g>
</g></g><g transform="translate(168,105) scale(0.07,0.07)"><g transform="" style="fill: rgb(255, 255, 255);">
<rect width="100" height="100"/>
</g></g><g transform="translate(189,105) scale(0.07,0.07)"><g transform="" style="fill: rgb(255, 255, 255);">
<rect width="100" height="100"/>
</g></g><g transform="translate(21,112) scale(0.07,0.07)"><g transform="" style="fill: rgb(255, 255, 255);">
<g>
	<path d="M100,65.625c0,9.506-3.354,17.611-10.059,24.316S75.131,100,65.625,100h-31.25c-9.505,0-17.611-3.354-24.316-10.059
		S0,75.131,0,65.625v-31.25c0-9.505,3.353-17.611,10.059-24.316S24.87,0,34.375,0h31.25c9.506,0,17.611,3.353,24.316,10.059
		S100,24.87,100,34.375V65.625z"/>
</g>
</g></g><g transform="translate(42,112) scale(0.07,0.07)"><g transform="" style="fill: rgb(255, 255, 255);">
<g>
	<path d="M100,65.625c0,9.506-3.354,17.611-10.059,24.316S75.131,100,65.625,100h-31.25c-9.505,0-17.611-3.354-24.316-10.059
		S0,75.131,0,65.625v-31.25c0-9.505,3.353-17.611,10.059-24.316S24.87,0,34.375,0h31.25c9.506,0,17.611,3.353,24.316,10.059
		S100,24.87,100,34.375V65.625z"/>
</g>
</g></g><g transform="translate(63,112) scale(0.07,0.07)"><g transform="" style="fill: rgb(255, 255, 255);">
<g>
	<path d="M100,0H0v65.625c0,9.506,3.353,17.611,10.059,24.316S24.87,100,34.375,100H100V0z"/>
</g>
</g></g><g transform="translate(70,112) scale(0.07,0.07)"><g transform="" style="fill: rgb(255, 255, 255);">
<g>
	<path d="M100,34.375c0-9.505-3.354-17.611-10.059-24.316S75.131,0,65.625,0H0v100h100V34.375z"/>
</g>
</g></g><g transform="translate(105,112) scale(0.07,0.07)"><g transform="" style="fill: rgb(255, 255, 255);">
<rect width="100" height="100"/>
</g></g><g transform="translate(112,112) scale(0.07,0.07)"><g transform="" style="fill: rgb(255, 255, 255);">
<g>
	<path d="M59.375,0H0v100h59.375L100,50L59.375,0z"/>
</g>
</g></g><g transform="translate(126,112) scale(0.07,0.07)"><g transform="" style="fill: rgb(255, 255, 255);">
<g>
	<path d="M40.625,0H100v100H40.625L0,50L40.625,0z"/>
</g>
</g></g><g transform="translate(133,112) scale(0.07,0.07)"><g transform="" style="fill: rgb(255, 255, 255);">
<rect width="100" height="100"/>
</g></g><g transform="translate(140,112) scale(0.07,0.07)"><g transform="" style="fill: rgb(255, 255, 255);">
<rect width="100" height="100"/>
</g></g><g transform="translate(147,112) scale(0.07,0.07)"><g transform="" style="fill: rgb(255, 255, 255);">
<g>
	<path d="M100,0H0v100h65.625c9.506,0,17.611-3.354,24.316-10.059S100,75.131,100,65.625V0z"/>
</g>
</g></g><g transform="translate(168,112) scale(0.07,0.07)"><g transform="" style="fill: rgb(255, 255, 255);">
<g>
	<path d="M100,0H0v65.625c0,9.506,3.353,17.611,10.059,24.316S24.87,100,34.375,100H100V0z"/>
</g>
</g></g><g transform="translate(175,112) scale(0.07,0.07)"><g transform="" style="fill: rgb(255, 255, 255);">
<g>
	<path d="M100,34.375c0-9.505-3.354-17.611-10.059-24.316S75.131,0,65.625,0H0v100h100V34.375z"/>
</g>
</g></g><g transform="translate(189,112) scale(0.07,0.07)"><g transform="" style="fill: rgb(255, 255, 255);">
<rect width="100" height="100"/>
</g></g><g transform="translate(14,119) scale(0.07,0.07)"><g transform="" style="fill: rgb(255, 255, 255);">
<g>
	<path d="M100,40.625V100H0V40.625L50,0L100,40.625z"/>
</g>
</g></g><g transform="translate(28,119) scale(0.07,0.07)"><g transform="" style="fill: rgb(255, 255, 255);">
<g>
	<path d="M100,40.625V100H0V40.625L50,0L100,40.625z"/>
</g>
</g></g><g transform="translate(49,119) scale(0.07,0.07)"><g transform="" style="fill: rgb(255, 255, 255);">
<g>
	<path d="M100,65.625c0,9.506-3.354,17.611-10.059,24.316S75.131,100,65.625,100h-31.25c-9.505,0-17.611-3.354-24.316-10.059
		S0,75.131,0,65.625v-31.25c0-9.505,3.353-17.611,10.059-24.316S24.87,0,34.375,0h31.25c9.506,0,17.611,3.353,24.316,10.059
		S100,24.87,100,34.375V65.625z"/>
</g>
</g></g><g transform="translate(70,119) scale(0.07,0.07)"><g transform="" style="fill: rgb(255, 255, 255);">
<rect width="100" height="100"/>
</g></g><g transform="translate(91,119) scale(0.07,0.07)"><g transform="" style="fill: rgb(255, 255, 255);">
<g>
	<path d="M100,65.625c0,9.506-3.354,17.611-10.059,24.316S75.131,100,65.625,100h-31.25c-9.505,0-17.611-3.354-24.316-10.059
		S0,75.131,0,65.625v-31.25c0-9.505,3.353-17.611,10.059-24.316S24.87,0,34.375,0h31.25c9.506,0,17.611,3.353,24.316,10.059
		S100,24.87,100,34.375V65.625z"/>
</g>
</g></g><g transform="translate(105,119) scale(0.07,0.07)"><g transform="" style="fill: rgb(255, 255, 255);">
<rect width="100" height="100"/>
</g></g><g transform="translate(140,119) scale(0.07,0.07)"><g transform="" style="fill: rgb(255, 255, 255);">
<rect width="100" height="100"/>
</g></g><g transform="translate(161,119) scale(0.07,0.07)"><g transform="" style="fill: rgb(255, 255, 255);">
<g>
	<path d="M100,40.625V100H0V40.625L50,0L100,40.625z"/>
</g>
</g></g><g transform="translate(175,119) scale(0.07,0.07)"><g transform="" style="fill: rgb(255, 255, 255);">
<g>
	<path d="M100,0H0v65.625c0,9.506,3.353,17.611,10.059,24.316S24.87,100,34.375,100H100V0z"/>
</g>
</g></g><g transform="translate(182,119) scale(0.07,0.07)"><g transform="" style="fill: rgb(255, 255, 255);">
<rect width="100" height="100"/>
</g></g><g transform="translate(189,119) scale(0.07,0.07)"><g transform="" style="fill: rgb(255, 255, 255);">
<g>
	<path d="M100,0H0v100h65.625c9.506,0,17.611-3.354,24.316-10.059S100,75.131,100,65.625V0z"/>
</g>
</g></g><g transform="translate(0,126) scale(0.07,0.07)"><g transform="" style="fill: rgb(255, 255, 255);">
<g>
	<path d="M100,65.625c0,9.506-3.354,17.611-10.059,24.316S75.131,100,65.625,100h-31.25c-9.505,0-17.611-3.354-24.316-10.059
		S0,75.131,0,65.625v-31.25c0-9.505,3.353-17.611,10.059-24.316S24.87,0,34.375,0h31.25c9.506,0,17.611,3.353,24.316,10.059
		S100,24.87,100,34.375V65.625z"/>
</g>
</g></g><g transform="translate(14,126) scale(0.07,0.07)"><g transform="" style="fill: rgb(255, 255, 255);">
<rect width="100" height="100"/>
</g></g><g transform="translate(28,126) scale(0.07,0.07)"><g transform="" style="fill: rgb(255, 255, 255);">
<rect width="100" height="100"/>
</g></g><g transform="translate(35,126) scale(0.07,0.07)"><g transform="" style="fill: rgb(255, 255, 255);">
<rect width="100" height="100"/>
</g></g><g transform="translate(42,126) scale(0.07,0.07)"><g transform="" style="fill: rgb(255, 255, 255);">
<g>
	<path d="M59.375,0H0v100h59.375L100,50L59.375,0z"/>
</g>
</g></g><g transform="translate(56,126) scale(0.07,0.07)"><g transform="" style="fill: rgb(255, 255, 255);">
<g>
	<path d="M100,65.625c0,9.506-3.354,17.611-10.059,24.316S75.131,100,65.625,100h-31.25c-9.505,0-17.611-3.354-24.316-10.059
		S0,75.131,0,65.625v-31.25c0-9.505,3.353-17.611,10.059-24.316S24.87,0,34.375,0h31.25c9.506,0,17.611,3.353,24.316,10.059
		S100,24.87,100,34.375V65.625z"/>
</g>
</g></g><g transform="translate(70,126) scale(0.07,0.07)"><g transform="" style="fill: rgb(255, 255, 255);">
<rect width="100" height="100"/>
</g></g><g transform="translate(84,126) scale(0.07,0.07)"><g transform="" style="fill: rgb(255, 255, 255);">
<g>
	<path d="M100,40.625V100H0V40.625L50,0L100,40.625z"/>
</g>
</g></g><g transform="translate(105,126) scale(0.07,0.07)"><g transform="" style="fill: rgb(255, 255, 255);">
<g>
	<path d="M100,0H0v65.625c0,9.506,3.353,17.611,10.059,24.316S24.87,100,34.375,100H100V0z"/>
</g>
</g></g><g transform="translate(112,126) scale(0.07,0.07)"><g transform="" style="fill: rgb(255, 255, 255);">
<rect width="100" height="100"/>
</g></g><g transform="translate(119,126) scale(0.07,0.07)"><g transform="" style="fill: rgb(255, 255, 255);">
<rect width="100" height="100"/>
</g></g><g transform="translate(126,126) scale(0.07,0.07)"><g transform="" style="fill: rgb(255, 255, 255);">
<g>
	<path d="M59.375,0H0v100h59.375L100,50L59.375,0z"/>
</g>
</g></g><g transform="translate(140,126) scale(0.07,0.07)"><g transform="" style="fill: rgb(255, 255, 255);">
<rect width="100" height="100"/>
</g></g><g transform="translate(154,126) scale(0.07,0.07)"><g transform="" style="fill: rgb(255, 255, 255);">
<g>
	<path d="M100,34.375V0H34.375C24.87,0,16.764,3.353,10.059,10.059S0,24.87,0,34.375V100h100V34.375z"/>
</g>
</g></g><g transform="translate(161,126) scale(0.07,0.07)"><g transform="" style="fill: rgb(255, 255, 255);">
<rect width="100" height="100"/>
</g></g><g transform="translate(168,126) scale(0.07,0.07)"><g transform="" style="fill: rgb(255, 255, 255);">
<g>
	<path d="M59.375,0H0v100h59.375L100,50L59.375,0z"/>
</g>
</g></g><g transform="translate(182,126) scale(0.07,0.07)"><g transform="" style="fill: rgb(255, 255, 255);">
<rect width="100" height="100"/>
</g></g><g transform="translate(14,133) scale(0.07,0.07)"><g transform="" style="fill: rgb(255, 255, 255);">
<g>
	<path d="M100,0H0v65.625c0,9.506,3.353,17.611,10.059,24.316S24.87,100,34.375,100H100V0z"/>
</g>
</g></g><g transform="translate(21,133) scale(0.07,0.07)"><g transform="" style="fill: rgb(255, 255, 255);">
<rect width="100" height="100"/>
</g></g><g transform="translate(28,133) scale(0.07,0.07)"><g transform="" style="fill: rgb(255, 255, 255);">
<g>
	<path d="M100,0H0v100h65.625c9.506,0,17.611-3.354,24.316-10.059S100,75.131,100,65.625V0z"/>
</g>
</g></g><g transform="translate(49,133) scale(0.07,0.07)"><g transform="" style="fill: rgb(255, 255, 255);">
<g>
	<path d="M100,40.625V100H0V40.625L50,0L100,40.625z"/>
</g>
</g></g><g transform="translate(70,133) scale(0.07,0.07)"><g transform="" style="fill: rgb(255, 255, 255);">
<rect width="100" height="100"/>
</g></g><g transform="translate(84,133) scale(0.07,0.07)"><g transform="" style="fill: rgb(255, 255, 255);">
<rect width="100" height="100"/>
</g></g><g transform="translate(112,133) scale(0.07,0.07)"><g transform="" style="fill: rgb(255, 255, 255);">
<rect width="100" height="100"/>
</g></g><g transform="translate(119,133) scale(0.07,0.07)"><g transform="" style="fill: rgb(255, 255, 255);">
<rect width="100" height="100"/>
</g></g><g transform="translate(133,133) scale(0.07,0.07)"><g transform="" style="fill: rgb(255, 255, 255);">
<g>
	<path d="M40.625,0H100v100H40.625L0,50L40.625,0z"/>
</g>
</g></g><g transform="translate(140,133) scale(0.07,0.07)"><g transform="" style="fill: rgb(255, 255, 255);">
<rect width="100" height="100"/>
</g></g><g transform="translate(147,133) scale(0.07,0.07)"><g transform="" style="fill: rgb(255, 255, 255);">
<rect width="100" height="100"/>
</g></g><g transform="translate(154,133) scale(0.07,0.07)"><g transform="" style="fill: rgb(255, 255, 255);">
<rect width="100" height="100"/>
</g></g><g transform="translate(161,133) scale(0.07,0.07)"><g transform="" style="fill: rgb(255, 255, 255);">
<rect width="100" height="100"/>
</g></g><g transform="translate(182,133) scale(0.07,0.07)"><g transform="" style="fill: rgb(255, 255, 255);">
<rect width="100" height="100"/>
</g></g><g transform="translate(7,140) scale(0.07,0.07)"><g transform="" style="fill: rgb(255, 255, 255);">
<g>
	<path d="M100,65.625c0,9.506-3.354,17.611-10.059,24.316S75.131,100,65.625,100h-31.25c-9.505,0-17.611-3.354-24.316-10.059
		S0,75.131,0,65.625v-31.25c0-9.505,3.353-17.611,10.059-24.316S24.87,0,34.375,0h31.25c9.506,0,17.611,3.353,24.316,10.059
		S100,24.87,100,34.375V65.625z"/>
</g>
</g></g><g transform="translate(35,140) scale(0.07,0.07)"><g transform="" style="fill: rgb(255, 255, 255);">
<g>
	<path d="M40.625,0H100v100H40.625L0,50L40.625,0z"/>
</g>
</g></g><g transform="translate(42,140) scale(0.07,0.07)"><g transform="" style="fill: rgb(255, 255, 255);">
<rect width="100" height="100"/>
</g></g><g transform="translate(49,140) scale(0.07,0.07)"><g transform="" style="fill: rgb(255, 255, 255);">
<rect width="100" height="100"/>
</g></g><g transform="translate(56,140) scale(0.07,0.07)"><g transform="" style="fill: rgb(255, 255, 255);">
<rect width="100" height="100"/>
</g></g><g transform="translate(63,140) scale(0.07,0.07)"><g transform="" style="fill: rgb(255, 255, 255);">
<rect width="100" height="100"/>
</g></g><g transform="translate(70,140) scale(0.07,0.07)"><g transform="" style="fill: rgb(255, 255, 255);">
<rect width="100" height="100"/>
</g></g><g transform="translate(77,140) scale(0.07,0.07)"><g transform="" style="fill: rgb(255, 255, 255);">
<rect width="100" height="100"/>
</g></g><g transform="translate(84,140) scale(0.07,0.07)"><g transform="" style="fill: rgb(255, 255, 255);">
<rect width="100" height="100"/>
</g></g><g transform="translate(91,140) scale(0.07,0.07)"><g transform="" style="fill: rgb(255, 255, 255);">
<g>
	<path d="M100,34.375c0-9.505-3.354-17.611-10.059-24.316S75.131,0,65.625,0H0v100h100V34.375z"/>
</g>
</g></g><g transform="translate(105,140) scale(0.07,0.07)"><g transform="" style="fill: rgb(255, 255, 255);">
<g>
	<path d="M100,34.375V0H34.375C24.87,0,16.764,3.353,10.059,10.059S0,24.87,0,34.375V100h100V34.375z"/>
</g>
</g></g><g transform="translate(112,140) scale(0.07,0.07)"><g transform="" style="fill: rgb(255, 255, 255);">
<rect width="100" height="100"/>
</g></g><g transform="translate(119,140) scale(0.07,0.07)"><g transform="" style="fill: rgb(255, 255, 255);">
<rect width="100" height="100"/>
</g></g><g transform="translate(140,140) scale(0.07,0.07)"><g transform="" style="fill: rgb(255, 255, 255);">
<rect width="100" height="100"/>
</g></g><g transform="translate(147,140) scale(0.07,0.07)"><g transform="" style="fill: rgb(255, 255, 255);">
<rect width="100" height="100"/>
</g></g><g transform="translate(154,140) scale(0.07,0.07)"><g transform="" style="fill: rgb(255, 255, 255);">
<rect width="100" height="100"/>
</g></g><g transform="translate(161,140) scale(0.07,0.07)"><g transform="" style="fill: rgb(255, 255, 255);">
<rect width="100" height="100"/>
</g></g><g transform="translate(168,140) scale(0.07,0.07)"><g transform="" style="fill: rgb(255, 255, 255);">
<rect width="100" height="100"/>
</g></g><g transform="translate(175,140) scale(0.07,0.07)"><g transform="" style="fill: rgb(255, 255, 255);">
<rect width="100" height="100"/>
</g></g><g transform="translate(182,140) scale(0.07,0.07)"><g transform="" style="fill: rgb(255, 255, 255);">
<rect width="100" height="100"/>
</g></g><g transform="translate(56,147) scale(0.07,0.07)"><g transform="" style="fill: rgb(255, 255, 255);">
<rect width="100" height="100"/>
</g></g><g transform="translate(63,147) scale(0.07,0.07)"><g transform="" style="fill: rgb(255, 255, 255);">
<rect width="100" height="100"/>
</g></g><g transform="translate(70,147) scale(0.07,0.07)"><g transform="" style="fill: rgb(255, 255, 255);">
<rect width="100" height="100"/>
</g></g><g transform="translate(77,147) scale(0.07,0.07)"><g transform="" style="fill: rgb(255, 255, 255);">
<rect width="100" height="100"/>
</g></g><g transform="translate(91,147) scale(0.07,0.07)"><g transform="" style="fill: rgb(255, 255, 255);">
<rect width="100" height="100"/>
</g></g><g transform="translate(98,147) scale(0.07,0.07)"><g transform="" style="fill: rgb(255, 255, 255);">
<rect width="100" height="100"/>
</g></g><g transform="translate(105,147) scale(0.07,0.07)"><g transform="" style="fill: rgb(255, 255, 255);">
<rect width="100" height="100"/>
</g></g><g transform="translate(112,147) scale(0.07,0.07)"><g transform="" style="fill: rgb(255, 255, 255);">
<rect width="100" height="100"/>
</g></g><g transform="translate(119,147) scale(0.07,0.07)"><g transform="" style="fill: rgb(255, 255, 255);">
<rect width="100" height="100"/>
</g></g><g transform="translate(126,147) scale(0.07,0.07)"><g transform="" style="fill: rgb(255, 255, 255);">
<g>
	<path d="M100,34.375c0-9.505-3.354-17.611-10.059-24.316S75.131,0,65.625,0H0v100h100V34.375z"/>
</g>
</g></g><g transform="translate(140,147) scale(0.07,0.07)"><g transform="" style="fill: rgb(255, 255, 255);">
<rect width="100" height="100"/>
</g></g><g transform="translate(168,147) scale(0.07,0.07)"><g transform="" style="fill: rgb(255, 255, 255);">
<rect width="100" height="100"/>
</g></g><g transform="translate(175,147) scale(0.07,0.07)"><g transform="" style="fill: rgb(255, 255, 255);">
<rect width="100" height="100"/>
</g></g><g transform="translate(182,147) scale(0.07,0.07)"><g transform="" style="fill: rgb(255, 255, 255);">
<rect width="100" height="100"/>
</g></g><g transform="translate(189,147) scale(0.07,0.07)"><g transform="" style="fill: rgb(255, 255, 255);">
<rect width="100" height="100"/>
</g></g><g transform="translate(196,147) scale(0.07,0.07)"><g transform="" style="fill: rgb(255, 255, 255);">
<g>
	<path d="M59.375,0H0v100h59.375L100,50L59.375,0z"/>
</g>
</g></g><g transform="translate(56,154) scale(0.07,0.07)"><g transform="" style="fill: rgb(255, 255, 255);">
<rect width="100" height="100"/>
</g></g><g transform="translate(63,154) scale(0.07,0.07)"><g transform="" style="fill: rgb(255, 255, 255);">
<rect width="100" height="100"/>
</g></g><g transform="translate(70,154) scale(0.07,0.07)"><g transform="" style="fill: rgb(255, 255, 255);">
<rect width="100" height="100"/>
</g></g><g transform="translate(77,154) scale(0.07,0.07)"><g transform="" style="fill: rgb(255, 255, 255);">
<rect width="100" height="100"/>
</g></g><g transform="translate(91,154) scale(0.07,0.07)"><g transform="" style="fill: rgb(255, 255, 255);">
<g>
	<path d="M100,59.375V0H0v59.375L50,100L100,59.375z"/>
</g>
</g></g><g transform="translate(112,154) scale(0.07,0.07)"><g transform="" style="fill: rgb(255, 255, 255);">
<g>
	<path d="M100,59.375V0H0v59.375L50,100L100,59.375z"/>
</g>
</g></g><g transform="translate(126,154) scale(0.07,0.07)"><g transform="" style="fill: rgb(255, 255, 255);">
<g>
	<path d="M100,0H0v65.625c0,9.506,3.353,17.611,10.059,24.316S24.87,100,34.375,100H100V0z"/>
</g>
</g></g><g transform="translate(133,154) scale(0.07,0.07)"><g transform="" style="fill: rgb(255, 255, 255);">
<rect width="100" height="100"/>
</g></g><g transform="translate(140,154) scale(0.07,0.07)"><g transform="" style="fill: rgb(255, 255, 255);">
<rect width="100" height="100"/>
</g></g><g transform="translate(154,154) scale(0.07,0.07)"><g transform="" style="fill: rgb(255, 255, 255);">
<g>
	<path d="M100,65.625c0,9.506-3.354,17.611-10.059,24.316S75.131,100,65.625,100h-31.25c-9.505,0-17.611-3.354-24.316-10.059
		S0,75.131,0,65.625v-31.25c0-9.505,3.353-17.611,10.059-24.316S24.87,0,34.375,0h31.25c9.506,0,17.611,3.353,24.316,10.059
		S100,24.87,100,34.375V65.625z"/>
</g>
</g></g><g transform="translate(168,154) scale(0.07,0.07)"><g transform="" style="fill: rgb(255, 255, 255);">
<rect width="100" height="100"/>
</g></g><g transform="translate(175,154) scale(0.07,0.07)"><g transform="" style="fill: rgb(255, 255, 255);">
<rect width="100" height="100"/>
</g></g><g transform="translate(189,154) scale(0.07,0.07)"><g transform="" style="fill: rgb(255, 255, 255);">
<rect width="100" height="100"/>
</g></g><g transform="translate(56,161) scale(0.07,0.07)"><g transform="" style="fill: rgb(255, 255, 255);">
<g>
	<path d="M100,0H0v65.625c0,9.506,3.353,17.611,10.059,24.316S24.87,100,34.375,100H100V0z"/>
</g>
</g></g><g transform="translate(63,161) scale(0.07,0.07)"><g transform="" style="fill: rgb(255, 255, 255);">
<g>
	<path d="M100,0H0v100h65.625c9.506,0,17.611-3.354,24.316-10.059S100,75.131,100,65.625V0z"/>
</g>
</g></g><g transform="translate(77,161) scale(0.07,0.07)"><g transform="" style="fill: rgb(255, 255, 255);">
<rect width="100" height="100"/>
</g></g><g transform="translate(105,161) scale(0.07,0.07)"><g transform="" style="fill: rgb(255, 255, 255);">
<g>
	<path d="M100,65.625c0,9.506-3.354,17.611-10.059,24.316S75.131,100,65.625,100h-31.25c-9.505,0-17.611-3.354-24.316-10.059
		S0,75.131,0,65.625v-31.25c0-9.505,3.353-17.611,10.059-24.316S24.87,0,34.375,0h31.25c9.506,0,17.611,3.353,24.316,10.059
		S100,24.87,100,34.375V65.625z"/>
</g>
</g></g><g transform="translate(140,161) scale(0.07,0.07)"><g transform="" style="fill: rgb(255, 255, 255);">
<rect width="100" height="100"/>
</g></g><g transform="translate(168,161) scale(0.07,0.07)"><g transform="" style="fill: rgb(255, 255, 255);">
<rect width="100" height="100"/>
</g></g><g transform="translate(175,161) scale(0.07,0.07)"><g transform="" style="fill: rgb(255, 255, 255);">
<g>
	<path d="M100,0H0v100h65.625c9.506,0,17.611-3.354,24.316-10.059S100,75.131,100,65.625V0z"/>
</g>
</g></g><g transform="translate(189,161) scale(0.07,0.07)"><g transform="" style="fill: rgb(255, 255, 255);">
<g>
	<path d="M100,0H0v65.625c0,9.506,3.353,17.611,10.059,24.316S24.87,100,34.375,100H100V0z"/>
</g>
</g></g><g transform="translate(196,161) scale(0.07,0.07)"><g transform="" style="fill: rgb(255, 255, 255);">
<g>
	<path d="M59.375,0H0v100h59.375L100,50L59.375,0z"/>
</g>
</g></g><g transform="translate(70,168) scale(0.07,0.07)"><g transform="" style="fill: rgb(255, 255, 255);">
<g>
	<path d="M40.625,0H100v100H40.625L0,50L40.625,0z"/>
</g>
</g></g><g transform="translate(77,168) scale(0.07,0.07)"><g transform="" style="fill: rgb(255, 255, 255);">
<g>
	<path d="M100,0H0v100h65.625c9.506,0,17.611-3.354,24.316-10.059S100,75.131,100,65.625V0z"/>
</g>
</g></g><g transform="translate(98,168) scale(0.07,0.07)"><g transform="" style="fill: rgb(255, 255, 255);">
<g>
	<path d="M100,40.625V100H0V40.625L50,0L100,40.625z"/>
</g>
</g></g><g transform="translate(119,168) scale(0.07,0.07)"><g transform="" style="fill: rgb(255, 255, 255);">
<g>
	<path d="M100,65.625c0,9.506-3.354,17.611-10.059,24.316S75.131,100,65.625,100h-31.25c-9.505,0-17.611-3.354-24.316-10.059
		S0,75.131,0,65.625v-31.25c0-9.505,3.353-17.611,10.059-24.316S24.87,0,34.375,0h31.25c9.506,0,17.611,3.353,24.316,10.059
		S100,24.87,100,34.375V65.625z"/>
</g>
</g></g><g transform="translate(140,168) scale(0.07,0.07)"><g transform="" style="fill: rgb(255, 255, 255);">
<rect width="100" height="100"/>
</g></g><g transform="translate(147,168) scale(0.07,0.07)"><g transform="" style="fill: rgb(255, 255, 255);">
<rect width="100" height="100"/>
</g></g><g transform="translate(154,168) scale(0.07,0.07)"><g transform="" style="fill: rgb(255, 255, 255);">
<rect width="100" height="100"/>
</g></g><g transform="translate(161,168) scale(0.07,0.07)"><g transform="" style="fill: rgb(255, 255, 255);">
<rect width="100" height="100"/>
</g></g><g transform="translate(168,168) scale(0.07,0.07)"><g transform="" style="fill: rgb(255, 255, 255);">
<rect width="100" height="100"/>
</g></g><g transform="translate(182,168) scale(0.07,0.07)"><g transform="" style="fill: rgb(255, 255, 255);">
<g>
	<path d="M100,65.625c0,9.506-3.354,17.611-10.059,24.316S75.131,100,65.625,100h-31.25c-9.505,0-17.611-3.354-24.316-10.059
		S0,75.131,0,65.625v-31.25c0-9.505,3.353-17.611,10.059-24.316S24.87,0,34.375,0h31.25c9.506,0,17.611,3.353,24.316,10.059
		S100,24.87,100,34.375V65.625z"/>
</g>
</g></g><g transform="translate(56,175) scale(0.07,0.07)"><g transform="" style="fill: rgb(255, 255, 255);">
<g>
	<path d="M100,34.375V0H34.375C24.87,0,16.764,3.353,10.059,10.059S0,24.87,0,34.375V100h100V34.375z"/>
</g>
</g></g><g transform="translate(63,175) scale(0.07,0.07)"><g transform="" style="fill: rgb(255, 255, 255);">
<g>
	<path d="M59.375,0H0v100h59.375L100,50L59.375,0z"/>
</g>
</g></g><g transform="translate(84,175) scale(0.07,0.07)"><g transform="" style="fill: rgb(255, 255, 255);">
<g>
	<path d="M100,34.375V0H34.375C24.87,0,16.764,3.353,10.059,10.059S0,24.87,0,34.375V100h100V34.375z"/>
</g>
</g></g><g transform="translate(91,175) scale(0.07,0.07)"><g transform="" style="fill: rgb(255, 255, 255);">
<rect width="100" height="100"/>
</g></g><g transform="translate(98,175) scale(0.07,0.07)"><g transform="" style="fill: rgb(255, 255, 255);">
<rect width="100" height="100"/>
</g></g><g transform="translate(105,175) scale(0.07,0.07)"><g transform="" style="fill: rgb(255, 255, 255);">
<g>
	<path d="M59.375,0H0v100h59.375L100,50L59.375,0z"/>
</g>
</g></g><g transform="translate(133,175) scale(0.07,0.07)"><g transform="" style="fill: rgb(255, 255, 255);">
<g>
	<path d="M100,34.375V0H34.375C24.87,0,16.764,3.353,10.059,10.059S0,24.87,0,34.375V100h100V34.375z"/>
</g>
</g></g><g transform="translate(140,175) scale(0.07,0.07)"><g transform="" style="fill: rgb(255, 255, 255);">
<rect width="100" height="100"/>
</g></g><g transform="translate(147,175) scale(0.07,0.07)"><g transform="" style="fill: rgb(255, 255, 255);">
<g>
	<path d="M100,0H0v100h65.625c9.506,0,17.611-3.354,24.316-10.059S100,75.131,100,65.625V0z"/>
</g>
</g></g><g transform="translate(161,175) scale(0.07,0.07)"><g transform="" style="fill: rgb(255, 255, 255);">
<rect width="100" height="100"/>
</g></g><g transform="translate(168,175) scale(0.07,0.07)"><g transform="" style="fill: rgb(255, 255, 255);">
<rect width="100" height="100"/>
</g></g><g transform="translate(175,175) scale(0.07,0.07)"><g transform="" style="fill: rgb(255, 255, 255);">
<g>
	<path d="M59.375,0H0v100h59.375L100,50L59.375,0z"/>
</g>
</g></g><g transform="translate(196,175) scale(0.07,0.07)"><g transform="" style="fill: rgb(255, 255, 255);">
<g>
	<path d="M100,40.625V100H0V40.625L50,0L100,40.625z"/>
</g>
</g></g><g transform="translate(56,182) scale(0.07,0.07)"><g transform="" style="fill: rgb(255, 255, 255);">
<g>
	<path d="M100,59.375V0H0v59.375L50,100L100,59.375z"/>
</g>
</g></g><g transform="translate(70,182) scale(0.07,0.07)"><g transform="" style="fill: rgb(255, 255, 255);">
<g>
	<path d="M100,40.625V100H0V40.625L50,0L100,40.625z"/>
</g>
</g></g><g transform="translate(84,182) scale(0.07,0.07)"><g transform="" style="fill: rgb(255, 255, 255);">
<g>
	<path d="M100,0H0v65.625c0,9.506,3.353,17.611,10.059,24.316S24.87,100,34.375,100H100V0z"/>
</g>
</g></g><g transform="translate(91,182) scale(0.07,0.07)"><g transform="" style="fill: rgb(255, 255, 255);">
<rect width="100" height="100"/>
</g></g><g transform="translate(133,182) scale(0.07,0.07)"><g transform="" style="fill: rgb(255, 255, 255);">
<g>
	<path d="M100,0H0v65.625c0,9.506,3.353,17.611,10.059,24.316S24.87,100,34.375,100H100V0z"/>
</g>
</g></g><g transform="translate(140,182) scale(0.07,0.07)"><g transform="" style="fill: rgb(255, 255, 255);">
<rect width="100" height="100"/>
</g></g><g transform="translate(161,182) scale(0.07,0.07)"><g transform="" style="fill: rgb(255, 255, 255);">
<g>
	<path d="M100,59.375V0H0v59.375L50,100L100,59.375z"/>
</g>
</g></g><g transform="translate(182,182) scale(0.07,0.07)"><g transform="" style="fill: rgb(255, 255, 255);">
<g>
	<path d="M100,65.625c0,9.506-3.354,17.611-10.059,24.316S75.131,100,65.625,100h-31.25c-9.505,0-17.611-3.354-24.316-10.059
		S0,75.131,0,65.625v-31.25c0-9.505,3.353-17.611,10.059-24.316S24.87,0,34.375,0h31.25c9.506,0,17.611,3.353,24.316,10.059
		S100,24.87,100,34.375V65.625z"/>
</g>
</g></g><g transform="translate(196,182) scale(0.07,0.07)"><g transform="" style="fill: rgb(255, 255, 255);">
<g>
	<path d="M100,59.375V0H0v59.375L50,100L100,59.375z"/>
</g>
</g></g><g transform="translate(63,189) scale(0.07,0.07)"><g transform="" style="fill: rgb(255, 255, 255);">
<g>
	<path d="M100,34.375V0H34.375C24.87,0,16.764,3.353,10.059,10.059S0,24.87,0,34.375V100h100V34.375z"/>
</g>
</g></g><g transform="translate(70,189) scale(0.07,0.07)"><g transform="" style="fill: rgb(255, 255, 255);">
<rect width="100" height="100"/>
</g></g><g transform="translate(91,189) scale(0.07,0.07)"><g transform="" style="fill: rgb(255, 255, 255);">
<g>
	<path d="M100,0H0v65.625c0,9.506,3.353,17.611,10.059,24.316S24.87,100,34.375,100H100V0z"/>
</g>
</g></g><g transform="translate(98,189) scale(0.07,0.07)"><g transform="" style="fill: rgb(255, 255, 255);">
<g>
	<path d="M59.375,0H0v100h59.375L100,50L59.375,0z"/>
</g>
</g></g><g transform="translate(112,189) scale(0.07,0.07)"><g transform="" style="fill: rgb(255, 255, 255);">
<g>
	<path d="M100,65.625c0,9.506-3.354,17.611-10.059,24.316S75.131,100,65.625,100h-31.25c-9.505,0-17.611-3.354-24.316-10.059
		S0,75.131,0,65.625v-31.25c0-9.505,3.353-17.611,10.059-24.316S24.87,0,34.375,0h31.25c9.506,0,17.611,3.353,24.316,10.059
		S100,24.87,100,34.375V65.625z"/>
</g>
</g></g><g transform="translate(140,189) scale(0.07,0.07)"><g transform="" style="fill: rgb(255, 255, 255);">
<rect width="100" height="100"/>
</g></g><g transform="translate(154,189) scale(0.07,0.07)"><g transform="" style="fill: rgb(255, 255, 255);">
<g>
	<path d="M100,65.625c0,9.506-3.354,17.611-10.059,24.316S75.131,100,65.625,100h-31.25c-9.505,0-17.611-3.354-24.316-10.059
		S0,75.131,0,65.625v-31.25c0-9.505,3.353-17.611,10.059-24.316S24.87,0,34.375,0h31.25c9.506,0,17.611,3.353,24.316,10.059
		S100,24.87,100,34.375V65.625z"/>
</g>
</g></g><g transform="translate(175,189) scale(0.07,0.07)"><g transform="" style="fill: rgb(255, 255, 255);">
<g>
	<path d="M100,65.625c0,9.506-3.354,17.611-10.059,24.316S75.131,100,65.625,100h-31.25c-9.505,0-17.611-3.354-24.316-10.059
		S0,75.131,0,65.625v-31.25c0-9.505,3.353-17.611,10.059-24.316S24.87,0,34.375,0h31.25c9.506,0,17.611,3.353,24.316,10.059
		S100,24.87,100,34.375V65.625z"/>
</g>
</g></g><g transform="translate(189,189) scale(0.07,0.07)"><g transform="" style="fill: rgb(255, 255, 255);">
<g>
	<path d="M100,40.625V100H0V40.625L50,0L100,40.625z"/>
</g>
</g></g><g transform="translate(56,196) scale(0.07,0.07)"><g transform="" style="fill: rgb(255, 255, 255);">
<g>
	<path d="M40.625,0H100v100H40.625L0,50L40.625,0z"/>
</g>
</g></g><g transform="translate(63,196) scale(0.07,0.07)"><g transform="" style="fill: rgb(255, 255, 255);">
<rect width="100" height="100"/>
</g></g><g transform="translate(70,196) scale(0.07,0.07)"><g transform="" style="fill: rgb(255, 255, 255);">
<g>
	<path d="M100,0H0v100h65.625c9.506,0,17.611-3.354,24.316-10.059S100,75.131,100,65.625V0z"/>
</g>
</g></g><g transform="translate(105,196) scale(0.07,0.07)"><g transform="" style="fill: rgb(255, 255, 255);">
<g>
	<path d="M100,65.625c0,9.506-3.354,17.611-10.059,24.316S75.131,100,65.625,100h-31.25c-9.505,0-17.611-3.354-24.316-10.059
		S0,75.131,0,65.625v-31.25c0-9.505,3.353-17.611,10.059-24.316S24.87,0,34.375,0h31.25c9.506,0,17.611,3.353,24.316,10.059
		S100,24.87,100,34.375V65.625z"/>
</g>
</g></g><g transform="translate(126,196) scale(0.07,0.07)"><g transform="" style="fill: rgb(255, 255, 255);">
<g>
	<path d="M40.625,0H100v100H40.625L0,50L40.625,0z"/>
</g>
</g></g><g transform="translate(133,196) scale(0.07,0.07)"><g transform="" style="fill: rgb(255, 255, 255);">
<rect width="100" height="100"/>
</g></g><g transform="translate(140,196) scale(0.07,0.07)"><g transform="" style="fill: rgb(255, 255, 255);">
<g>
	<path d="M100,0H0v100h65.625c9.506,0,17.611-3.354,24.316-10.059S100,75.131,100,65.625V0z"/>
</g>
</g></g><g transform="translate(168,196) scale(0.07,0.07)"><g transform="" style="fill: rgb(255, 255, 255);">
<g>
	<path d="M100,65.625c0,9.506-3.354,17.611-10.059,24.316S75.131,100,65.625,100h-31.25c-9.505,0-17.611-3.354-24.316-10.059
		S0,75.131,0,65.625v-31.25c0-9.505,3.353-17.611,10.059-24.316S24.87,0,34.375,0h31.25c9.506,0,17.611,3.353,24.316,10.059
		S100,24.87,100,34.375V65.625z"/>
</g>
</g></g><g transform="translate(189,196) scale(0.07,0.07)"><g transform="" style="fill: rgb(255, 255, 255);">
<g>
	<path d="M100,59.375V0H0v59.375L50,100L100,59.375z"/>
</g>
</g></g></g></mask></defs></g><rect x="0" y="0" width="203" height="203" fill="url(#grad)" mask="url(#gmask)" /><g transform="translate(0,0) scale(0.07, 0.07)"><g transform="" style="fill: rgb(60, 11, 146);">
<g>


	<polygon points="13,0 0,87 87,100 100,13"/>
	<polygon points="100,17 183,0 200,83 117,100"/>
	<polygon points="200,10 290,0 300,90 200,100"/>
	<polygon points="300,15 385,0 400,85 315,100"/>
	<polygon points="400,12 488,0 500,88 412,100"/>
	<polygon points="522,0 500,78 578,100 600,22"/>
	<polygon points="615,5 605,85 685,95 695,15"/>

	<polygon points="0,115 85,100 100,185 15,200"/>
	<polygon points="600,112 688,100 700,188 612,200"/>

	<polygon points="22,200 0,278 78,300 100,222"/>
	<polygon points="615,205 605,285 685,295 695,215"/>

	<polygon points="0,310 90,300 100,390 0,400"/>
	<polygon points="600,315 685,300 700,385 615,400"/>

	<polygon points="0,412 88,400 100,488 12,500"/>
	<polygon points="622,400 600,478 678,500 700,422"/>

	<polygon points="0,515 85,500 100,585 15,600"/>
	<polygon points="600,512 688,500 700,588 612,600"/>


	<polygon points="13,600 0,687 87,700 100,613"/>
	<polygon points="100,617 183,600 200,683 117,700"/>
	<polygon points="200,610 290,600 300,690 200,700"/>
	<polygon points="300,615 385,600 400,685 315,700"/>
	<polygon points="400,612 488,600 500,688 412,700"/>
	<polygon points="522,600 500,678 578,700 600,622"/>
	<polygon points="615,605 605,685 685,695 695,615"/>

</g>
</g></g><g transform="translate(154,0) scale(0.07, 0.07)"><g transform=" translate(700, 0) scale(-1,1) " style="fill: rgb(60, 11, 146);">
<g>


	<polygon points="13,0 0,87 87,100 100,13"/>
	<polygon points="100,17 183,0 200,83 117,100"/>
	<polygon points="200,10 290,0 300,90 200,100"/>
	<polygon points="300,15 385,0 400,85 315,100"/>
	<polygon points="400,12 488,0 500,88 412,100"/>
	<polygon points="522,0 500,78 578,100 600,22"/>
	<polygon points="615,5 605,85 685,95 695,15"/>

	<polygon points="0,115 85,100 100,185 15,200"/>
	<polygon points="600,112 688,100 700,188 612,200"/>

	<polygon points="22,200 0,278 78,300 100,222"/>
	<polygon points="615,205 605,285 685,295 695,215"/>

	<polygon points="0,310 90,300 100,390 0,400"/>
	<polygon points="600,315 685,300 700,385 615,400"/>

	<polygon points="0,412 88,400 100,488 12,500"/>
	<polygon points="622,400 600,478 678,500 700,422"/>

	<polygon points="0,515 85,500 100,585 15,600"/>
	<polygon points="600,512 688,500 700,588 612,600"/>


	<polygon points="13,600 0,687 87,700 100,613"/>
	<polygon points="100,617 183,600 200,683 117,700"/>
	<polygon points="200,610 290,600 300,690 200,700"/>
	<polygon points="300,615 385,600 400,685 315,700"/>
	<polygon points="400,612 488,600 500,688 412,700"/>
	<polygon points="522,600 500,678 578,700 600,622"/>
	<polygon points="615,605 605,685 685,695 695,615"/>

</g>
</g></g><g transform="translate(0,154) scale(0.07, 0.07)"><g transform=" translate(0,700) scale(1,-1) " style="fill: rgb(60, 11, 146);">
<g>


	<polygon points="13,0 0,87 87,100 100,13"/>
	<polygon points="100,17 183,0 200,83 117,100"/>
	<polygon points="200,10 290,0 300,90 200,100"/>
	<polygon points="300,15 385,0 400,85 315,100"/>
	<polygon points="400,12 488,0 500,88 412,100"/>
	<polygon points="522,0 500,78 578,100 600,22"/>
	<polygon points="615,5 605,85 685,95 695,15"/>

	<polygon points="0,115 85,100 100,185 15,200"/>
	<polygon points="600,112 688,100 700,188 612,200"/>

	<polygon points="22,200 0,278 78,300 100,222"/>
	<polygon points="615,205 605,285 685,295 695,215"/>

	<polygon points="0,310 90,300 100,390 0,400"/>
	<polygon points="600,315 685,300 700,385 615,400"/>

	<polygon points="0,412 88,400 100,488 12,500"/>
	<polygon points="622,400 600,478 678,500 700,422"/>

	<polygon points="0,515 85,500 100,585 15,600"/>
	<polygon points="600,512 688,500 700,588 612,600"/>


	<polygon points="13,600 0,687 87,700 100,613"/>
	<polygon points="100,617 183,600 200,683 117,700"/>
	<polygon points="200,610 290,600 300,690 200,700"/>
	<polygon points="300,615 385,600 400,685 315,700"/>
	<polygon points="400,612 488,600 500,688 412,700"/>
	<polygon points="522,600 500,678 578,700 600,622"/>
	<polygon points="615,605 605,685 685,695 695,615"/>

</g>
</g></g><g transform="translate(14,14) scale(0.21, 0.21)"><g transform="" style="fill: rgb(87, 17, 153);">
<g>
	<g id="XMLID_1_">
		<g>
			<path d="M27.351,100c-15.09,0-27.365-12.032-27.365-26.808V26.794c0-4.616,1.2-8.96,3.301-12.761
				c2.029-3.658,4.901-6.802,8.36-9.174C16.09,1.801,21.506,0,27.336,0h45.327c15.076,0,27.351,12.018,27.351,26.793v46.398
				c0,14.775-12.274,26.808-27.351,26.808H50H27.351z"/>
		</g>
		<g>
		</g>
	</g>
</g>
</g></g><g transform="translate(168,14) scale(0.21, 0.21)"><g transform="" style="fill: rgb(87, 17, 153);">
<g>
	<g id="XMLID_1_">
		<g>
			<path d="M27.351,100c-15.09,0-27.365-12.032-27.365-26.808V26.794c0-4.616,1.2-8.96,3.301-12.761
				c2.029-3.658,4.901-6.802,8.36-9.174C16.09,1.801,21.506,0,27.336,0h45.327c15.076,0,27.351,12.018,27.351,26.793v46.398
				c0,14.775-12.274,26.808-27.351,26.808H50H27.351z"/>
		</g>
		<g>
		</g>
	</g>
</g>
</g></g><g transform="translate(14,168) scale(0.21, 0.21)"><g transform="" style="fill: rgb(87, 17, 153);">
<g>
	<g id="XMLID_1_">
		<g>
			<path d="M27.351,100c-15.09,0-27.365-12.032-27.365-26.808V26.794c0-4.616,1.2-8.96,3.301-12.761
				c2.029-3.658,4.901-6.802,8.36-9.174C16.09,1.801,21.506,0,27.336,0h45.327c15.076,0,27.351,12.018,27.351,26.793v46.398
				c0,14.775-12.274,26.808-27.351,26.808H50H27.351z"/>
		</g>
		<g>
		</g>
	</g>
</g>
</g></g></g></svg>